<?xml version="1.0" encoding="utf-8" standalone="no"?>
<!DOCTYPE svg PUBLIC "-//W3C//DTD SVG 1.1//EN"
  "http://www.w3.org/Graphics/SVG/1.1/DTD/svg11.dtd">
<svg xmlns:xlink="http://www.w3.org/1999/xlink" width="792pt" height="396pt" viewBox="0 0 792 396" xmlns="http://www.w3.org/2000/svg" version="1.1">
 <metadata>
  <rdf:RDF xmlns:dc="http://purl.org/dc/elements/1.1/" xmlns:cc="http://creativecommons.org/ns#" xmlns:rdf="http://www.w3.org/1999/02/22-rdf-syntax-ns#">
   <cc:Work>
    <dc:type rdf:resource="http://purl.org/dc/dcmitype/StillImage"/>
    <dc:date>2022-12-23T01:45:39.757709</dc:date>
    <dc:format>image/svg+xml</dc:format>
    <dc:creator>
     <cc:Agent>
      <dc:title>Matplotlib v3.5.2, https://matplotlib.org/</dc:title>
     </cc:Agent>
    </dc:creator>
   </cc:Work>
  </rdf:RDF>
 </metadata>
 <defs>
  <style type="text/css">*{stroke-linejoin: round; stroke-linecap: butt}</style>
 </defs>
 <g id="figure_1">
  <g id="patch_1">
   <path d="M 0 396 
L 792 396 
L 792 0 
L 0 0 
z
" style="fill: #ffffff"/>
  </g>
  <g id="axes_1">
   <g id="patch_2">
    <path d="M 99 352.44 
L 378 352.44 
L 378 47.52 
L 99 47.52 
z
" style="fill: #ffffff"/>
   </g>
   <g id="patch_3">
    <path d="M 120.529598 352.44 
L 129.377378 352.44 
L 129.377378 230.949365 
L 120.529598 230.949365 
z
" clip-path="url(#p7d8c4593a3)" style="fill: #0000ff"/>
   </g>
   <g id="patch_4">
    <path d="M 150.022199 352.44 
L 158.869979 352.44 
L 158.869979 247.303873 
L 150.022199 247.303873 
z
" clip-path="url(#p7d8c4593a3)" style="fill: #0000ff"/>
   </g>
   <g id="patch_5">
    <path d="M 179.514799 352.44 
L 188.362579 352.44 
L 188.362579 235.00493 
L 179.514799 235.00493 
z
" clip-path="url(#p7d8c4593a3)" style="fill: #0000ff"/>
   </g>
   <g id="patch_6">
    <path d="M 209.0074 352.44 
L 217.85518 352.44 
L 217.85518 222.795813 
L 209.0074 222.795813 
z
" clip-path="url(#p7d8c4593a3)" style="fill: #0000ff"/>
   </g>
   <g id="patch_7">
    <path d="M 238.5 352.44 
L 247.34778 352.44 
L 247.34778 205.063721 
L 238.5 205.063721 
z
" clip-path="url(#p7d8c4593a3)" style="fill: #0000ff"/>
   </g>
   <g id="patch_8">
    <path d="M 267.9926 352.44 
L 276.840381 352.44 
L 276.840381 203.169834 
L 267.9926 203.169834 
z
" clip-path="url(#p7d8c4593a3)" style="fill: #0000ff"/>
   </g>
   <g id="patch_9">
    <path d="M 297.485201 352.44 
L 306.332981 352.44 
L 306.332981 203.042813 
L 297.485201 203.042813 
z
" clip-path="url(#p7d8c4593a3)" style="fill: #0000ff"/>
   </g>
   <g id="patch_10">
    <path d="M 326.977801 352.44 
L 335.825581 352.44 
L 335.825581 202.488717 
L 326.977801 202.488717 
z
" clip-path="url(#p7d8c4593a3)" style="fill: #0000ff"/>
   </g>
   <g id="patch_11">
    <path d="M 356.470402 352.44 
L 365.318182 352.44 
L 365.318182 194.579277 
L 356.470402 194.579277 
z
" clip-path="url(#p7d8c4593a3)" style="fill: #0000ff"/>
   </g>
   <g id="patch_12">
    <path d="M 111.681818 352.44 
L 120.529598 352.44 
L 120.529598 270.200185 
L 111.681818 270.200185 
z
" clip-path="url(#p7d8c4593a3)" style="fill: #ff0000"/>
   </g>
   <g id="patch_13">
    <path d="M 141.174419 352.44 
L 150.022199 352.44 
L 150.022199 285.775908 
L 141.174419 285.775908 
z
" clip-path="url(#p7d8c4593a3)" style="fill: #ff0000"/>
   </g>
   <g id="patch_14">
    <path d="M 170.667019 352.44 
L 179.514799 352.44 
L 179.514799 275.871897 
L 170.667019 275.871897 
z
" clip-path="url(#p7d8c4593a3)" style="fill: #ff0000"/>
   </g>
   <g id="patch_15">
    <path d="M 200.159619 352.44 
L 209.0074 352.44 
L 209.0074 260.667843 
L 200.159619 260.667843 
z
" clip-path="url(#p7d8c4593a3)" style="fill: #ff0000"/>
   </g>
   <g id="patch_16">
    <path d="M 229.65222 352.44 
L 238.5 352.44 
L 238.5 250.914814 
L 229.65222 250.914814 
z
" clip-path="url(#p7d8c4593a3)" style="fill: #ff0000"/>
   </g>
   <g id="patch_17">
    <path d="M 259.14482 352.44 
L 267.9926 352.44 
L 267.9926 245.791053 
L 259.14482 245.791053 
z
" clip-path="url(#p7d8c4593a3)" style="fill: #ff0000"/>
   </g>
   <g id="patch_18">
    <path d="M 288.637421 352.44 
L 297.485201 352.44 
L 297.485201 245.80469 
L 288.637421 245.80469 
z
" clip-path="url(#p7d8c4593a3)" style="fill: #ff0000"/>
   </g>
   <g id="patch_19">
    <path d="M 318.130021 352.44 
L 326.977801 352.44 
L 326.977801 244.068652 
L 318.130021 244.068652 
z
" clip-path="url(#p7d8c4593a3)" style="fill: #ff0000"/>
   </g>
   <g id="patch_20">
    <path d="M 347.622622 352.44 
L 356.470402 352.44 
L 356.470402 239.898733 
L 347.622622 239.898733 
z
" clip-path="url(#p7d8c4593a3)" style="fill: #ff0000"/>
   </g>
   <g id="matplotlib.axis_1">
    <g id="xtick_1">
     <g id="line2d_1">
      <defs>
       <path id="m5f8868cb58" d="M 0 0 
L 0 3.5 
" style="stroke: #000000; stroke-width: 0.8"/>
      </defs>
      <g>
       <use xlink:href="#m5f8868cb58" x="120.529598" y="352.44" style="stroke: #000000; stroke-width: 0.8"/>
      </g>
     </g>
     <g id="text_1">
      <!-- 1920 -->
      <g transform="translate(107.804598 367.038437)scale(0.1 -0.1)">
       <defs>
        <path id="DejaVuSans-31" d="M 794 531 
L 1825 531 
L 1825 4091 
L 703 3866 
L 703 4441 
L 1819 4666 
L 2450 4666 
L 2450 531 
L 3481 531 
L 3481 0 
L 794 0 
L 794 531 
z
" transform="scale(0.015625)"/>
        <path id="DejaVuSans-39" d="M 703 97 
L 703 672 
Q 941 559 1184 500 
Q 1428 441 1663 441 
Q 2288 441 2617 861 
Q 2947 1281 2994 2138 
Q 2813 1869 2534 1725 
Q 2256 1581 1919 1581 
Q 1219 1581 811 2004 
Q 403 2428 403 3163 
Q 403 3881 828 4315 
Q 1253 4750 1959 4750 
Q 2769 4750 3195 4129 
Q 3622 3509 3622 2328 
Q 3622 1225 3098 567 
Q 2575 -91 1691 -91 
Q 1453 -91 1209 -44 
Q 966 3 703 97 
z
M 1959 2075 
Q 2384 2075 2632 2365 
Q 2881 2656 2881 3163 
Q 2881 3666 2632 3958 
Q 2384 4250 1959 4250 
Q 1534 4250 1286 3958 
Q 1038 3666 1038 3163 
Q 1038 2656 1286 2365 
Q 1534 2075 1959 2075 
z
" transform="scale(0.015625)"/>
        <path id="DejaVuSans-32" d="M 1228 531 
L 3431 531 
L 3431 0 
L 469 0 
L 469 531 
Q 828 903 1448 1529 
Q 2069 2156 2228 2338 
Q 2531 2678 2651 2914 
Q 2772 3150 2772 3378 
Q 2772 3750 2511 3984 
Q 2250 4219 1831 4219 
Q 1534 4219 1204 4116 
Q 875 4013 500 3803 
L 500 4441 
Q 881 4594 1212 4672 
Q 1544 4750 1819 4750 
Q 2544 4750 2975 4387 
Q 3406 4025 3406 3419 
Q 3406 3131 3298 2873 
Q 3191 2616 2906 2266 
Q 2828 2175 2409 1742 
Q 1991 1309 1228 531 
z
" transform="scale(0.015625)"/>
        <path id="DejaVuSans-30" d="M 2034 4250 
Q 1547 4250 1301 3770 
Q 1056 3291 1056 2328 
Q 1056 1369 1301 889 
Q 1547 409 2034 409 
Q 2525 409 2770 889 
Q 3016 1369 3016 2328 
Q 3016 3291 2770 3770 
Q 2525 4250 2034 4250 
z
M 2034 4750 
Q 2819 4750 3233 4129 
Q 3647 3509 3647 2328 
Q 3647 1150 3233 529 
Q 2819 -91 2034 -91 
Q 1250 -91 836 529 
Q 422 1150 422 2328 
Q 422 3509 836 4129 
Q 1250 4750 2034 4750 
z
" transform="scale(0.015625)"/>
       </defs>
       <use xlink:href="#DejaVuSans-31"/>
       <use xlink:href="#DejaVuSans-39" x="63.623047"/>
       <use xlink:href="#DejaVuSans-32" x="127.246094"/>
       <use xlink:href="#DejaVuSans-30" x="190.869141"/>
      </g>
     </g>
    </g>
    <g id="xtick_2">
     <g id="line2d_2">
      <g>
       <use xlink:href="#m5f8868cb58" x="179.514799" y="352.44" style="stroke: #000000; stroke-width: 0.8"/>
      </g>
     </g>
     <g id="text_2">
      <!-- 1940 -->
      <g transform="translate(166.789799 367.038437)scale(0.1 -0.1)">
       <defs>
        <path id="DejaVuSans-34" d="M 2419 4116 
L 825 1625 
L 2419 1625 
L 2419 4116 
z
M 2253 4666 
L 3047 4666 
L 3047 1625 
L 3713 1625 
L 3713 1100 
L 3047 1100 
L 3047 0 
L 2419 0 
L 2419 1100 
L 313 1100 
L 313 1709 
L 2253 4666 
z
" transform="scale(0.015625)"/>
       </defs>
       <use xlink:href="#DejaVuSans-31"/>
       <use xlink:href="#DejaVuSans-39" x="63.623047"/>
       <use xlink:href="#DejaVuSans-34" x="127.246094"/>
       <use xlink:href="#DejaVuSans-30" x="190.869141"/>
      </g>
     </g>
    </g>
    <g id="xtick_3">
     <g id="line2d_3">
      <g>
       <use xlink:href="#m5f8868cb58" x="238.5" y="352.44" style="stroke: #000000; stroke-width: 0.8"/>
      </g>
     </g>
     <g id="text_3">
      <!-- 1960 -->
      <g transform="translate(225.775 367.038437)scale(0.1 -0.1)">
       <defs>
        <path id="DejaVuSans-36" d="M 2113 2584 
Q 1688 2584 1439 2293 
Q 1191 2003 1191 1497 
Q 1191 994 1439 701 
Q 1688 409 2113 409 
Q 2538 409 2786 701 
Q 3034 994 3034 1497 
Q 3034 2003 2786 2293 
Q 2538 2584 2113 2584 
z
M 3366 4563 
L 3366 3988 
Q 3128 4100 2886 4159 
Q 2644 4219 2406 4219 
Q 1781 4219 1451 3797 
Q 1122 3375 1075 2522 
Q 1259 2794 1537 2939 
Q 1816 3084 2150 3084 
Q 2853 3084 3261 2657 
Q 3669 2231 3669 1497 
Q 3669 778 3244 343 
Q 2819 -91 2113 -91 
Q 1303 -91 875 529 
Q 447 1150 447 2328 
Q 447 3434 972 4092 
Q 1497 4750 2381 4750 
Q 2619 4750 2861 4703 
Q 3103 4656 3366 4563 
z
" transform="scale(0.015625)"/>
       </defs>
       <use xlink:href="#DejaVuSans-31"/>
       <use xlink:href="#DejaVuSans-39" x="63.623047"/>
       <use xlink:href="#DejaVuSans-36" x="127.246094"/>
       <use xlink:href="#DejaVuSans-30" x="190.869141"/>
      </g>
     </g>
    </g>
    <g id="xtick_4">
     <g id="line2d_4">
      <g>
       <use xlink:href="#m5f8868cb58" x="297.485201" y="352.44" style="stroke: #000000; stroke-width: 0.8"/>
      </g>
     </g>
     <g id="text_4">
      <!-- 1980 -->
      <g transform="translate(284.760201 367.038437)scale(0.1 -0.1)">
       <defs>
        <path id="DejaVuSans-38" d="M 2034 2216 
Q 1584 2216 1326 1975 
Q 1069 1734 1069 1313 
Q 1069 891 1326 650 
Q 1584 409 2034 409 
Q 2484 409 2743 651 
Q 3003 894 3003 1313 
Q 3003 1734 2745 1975 
Q 2488 2216 2034 2216 
z
M 1403 2484 
Q 997 2584 770 2862 
Q 544 3141 544 3541 
Q 544 4100 942 4425 
Q 1341 4750 2034 4750 
Q 2731 4750 3128 4425 
Q 3525 4100 3525 3541 
Q 3525 3141 3298 2862 
Q 3072 2584 2669 2484 
Q 3125 2378 3379 2068 
Q 3634 1759 3634 1313 
Q 3634 634 3220 271 
Q 2806 -91 2034 -91 
Q 1263 -91 848 271 
Q 434 634 434 1313 
Q 434 1759 690 2068 
Q 947 2378 1403 2484 
z
M 1172 3481 
Q 1172 3119 1398 2916 
Q 1625 2713 2034 2713 
Q 2441 2713 2670 2916 
Q 2900 3119 2900 3481 
Q 2900 3844 2670 4047 
Q 2441 4250 2034 4250 
Q 1625 4250 1398 4047 
Q 1172 3844 1172 3481 
z
" transform="scale(0.015625)"/>
       </defs>
       <use xlink:href="#DejaVuSans-31"/>
       <use xlink:href="#DejaVuSans-39" x="63.623047"/>
       <use xlink:href="#DejaVuSans-38" x="127.246094"/>
       <use xlink:href="#DejaVuSans-30" x="190.869141"/>
      </g>
     </g>
    </g>
    <g id="xtick_5">
     <g id="line2d_5">
      <g>
       <use xlink:href="#m5f8868cb58" x="356.470402" y="352.44" style="stroke: #000000; stroke-width: 0.8"/>
      </g>
     </g>
     <g id="text_5">
      <!-- 2000 -->
      <g transform="translate(343.745402 367.038437)scale(0.1 -0.1)">
       <use xlink:href="#DejaVuSans-32"/>
       <use xlink:href="#DejaVuSans-30" x="63.623047"/>
       <use xlink:href="#DejaVuSans-30" x="127.246094"/>
       <use xlink:href="#DejaVuSans-30" x="190.869141"/>
      </g>
     </g>
    </g>
   </g>
   <g id="matplotlib.axis_2">
    <g id="ytick_1">
     <g id="line2d_6">
      <defs>
       <path id="mbf91b3594f" d="M 0 0 
L -3.5 0 
" style="stroke: #000000; stroke-width: 0.8"/>
      </defs>
      <g>
       <use xlink:href="#mbf91b3594f" x="99" y="352.44" style="stroke: #000000; stroke-width: 0.8"/>
      </g>
     </g>
     <g id="text_6">
      <!-- 0 -->
      <g transform="translate(85.6375 356.239219)scale(0.1 -0.1)">
       <use xlink:href="#DejaVuSans-30"/>
      </g>
     </g>
    </g>
    <g id="ytick_2">
     <g id="line2d_7">
      <g>
       <use xlink:href="#mbf91b3594f" x="99" y="315.058266" style="stroke: #000000; stroke-width: 0.8"/>
      </g>
     </g>
     <g id="text_7">
      <!-- 10 -->
      <g transform="translate(79.275 318.857485)scale(0.1 -0.1)">
       <use xlink:href="#DejaVuSans-31"/>
       <use xlink:href="#DejaVuSans-30" x="63.623047"/>
      </g>
     </g>
    </g>
    <g id="ytick_3">
     <g id="line2d_8">
      <g>
       <use xlink:href="#mbf91b3594f" x="99" y="277.676532" style="stroke: #000000; stroke-width: 0.8"/>
      </g>
     </g>
     <g id="text_8">
      <!-- 20 -->
      <g transform="translate(79.275 281.475751)scale(0.1 -0.1)">
       <use xlink:href="#DejaVuSans-32"/>
       <use xlink:href="#DejaVuSans-30" x="63.623047"/>
      </g>
     </g>
    </g>
    <g id="ytick_4">
     <g id="line2d_9">
      <g>
       <use xlink:href="#mbf91b3594f" x="99" y="240.294798" style="stroke: #000000; stroke-width: 0.8"/>
      </g>
     </g>
     <g id="text_9">
      <!-- 30 -->
      <g transform="translate(79.275 244.094017)scale(0.1 -0.1)">
       <defs>
        <path id="DejaVuSans-33" d="M 2597 2516 
Q 3050 2419 3304 2112 
Q 3559 1806 3559 1356 
Q 3559 666 3084 287 
Q 2609 -91 1734 -91 
Q 1441 -91 1130 -33 
Q 819 25 488 141 
L 488 750 
Q 750 597 1062 519 
Q 1375 441 1716 441 
Q 2309 441 2620 675 
Q 2931 909 2931 1356 
Q 2931 1769 2642 2001 
Q 2353 2234 1838 2234 
L 1294 2234 
L 1294 2753 
L 1863 2753 
Q 2328 2753 2575 2939 
Q 2822 3125 2822 3475 
Q 2822 3834 2567 4026 
Q 2313 4219 1838 4219 
Q 1578 4219 1281 4162 
Q 984 4106 628 3988 
L 628 4550 
Q 988 4650 1302 4700 
Q 1616 4750 1894 4750 
Q 2613 4750 3031 4423 
Q 3450 4097 3450 3541 
Q 3450 3153 3228 2886 
Q 3006 2619 2597 2516 
z
" transform="scale(0.015625)"/>
       </defs>
       <use xlink:href="#DejaVuSans-33"/>
       <use xlink:href="#DejaVuSans-30" x="63.623047"/>
      </g>
     </g>
    </g>
    <g id="ytick_5">
     <g id="line2d_10">
      <g>
       <use xlink:href="#mbf91b3594f" x="99" y="202.913064" style="stroke: #000000; stroke-width: 0.8"/>
      </g>
     </g>
     <g id="text_10">
      <!-- 40 -->
      <g transform="translate(79.275 206.712283)scale(0.1 -0.1)">
       <use xlink:href="#DejaVuSans-34"/>
       <use xlink:href="#DejaVuSans-30" x="63.623047"/>
      </g>
     </g>
    </g>
    <g id="ytick_6">
     <g id="line2d_11">
      <g>
       <use xlink:href="#mbf91b3594f" x="99" y="165.53133" style="stroke: #000000; stroke-width: 0.8"/>
      </g>
     </g>
     <g id="text_11">
      <!-- 50 -->
      <g transform="translate(79.275 169.330549)scale(0.1 -0.1)">
       <defs>
        <path id="DejaVuSans-35" d="M 691 4666 
L 3169 4666 
L 3169 4134 
L 1269 4134 
L 1269 2991 
Q 1406 3038 1543 3061 
Q 1681 3084 1819 3084 
Q 2600 3084 3056 2656 
Q 3513 2228 3513 1497 
Q 3513 744 3044 326 
Q 2575 -91 1722 -91 
Q 1428 -91 1123 -41 
Q 819 9 494 109 
L 494 744 
Q 775 591 1075 516 
Q 1375 441 1709 441 
Q 2250 441 2565 725 
Q 2881 1009 2881 1497 
Q 2881 1984 2565 2268 
Q 2250 2553 1709 2553 
Q 1456 2553 1204 2497 
Q 953 2441 691 2322 
L 691 4666 
z
" transform="scale(0.015625)"/>
       </defs>
       <use xlink:href="#DejaVuSans-35"/>
       <use xlink:href="#DejaVuSans-30" x="63.623047"/>
      </g>
     </g>
    </g>
    <g id="ytick_7">
     <g id="line2d_12">
      <g>
       <use xlink:href="#mbf91b3594f" x="99" y="128.149596" style="stroke: #000000; stroke-width: 0.8"/>
      </g>
     </g>
     <g id="text_12">
      <!-- 60 -->
      <g transform="translate(79.275 131.948815)scale(0.1 -0.1)">
       <use xlink:href="#DejaVuSans-36"/>
       <use xlink:href="#DejaVuSans-30" x="63.623047"/>
      </g>
     </g>
    </g>
    <g id="ytick_8">
     <g id="line2d_13">
      <g>
       <use xlink:href="#mbf91b3594f" x="99" y="90.767863" style="stroke: #000000; stroke-width: 0.8"/>
      </g>
     </g>
     <g id="text_13">
      <!-- 70 -->
      <g transform="translate(79.275 94.567081)scale(0.1 -0.1)">
       <defs>
        <path id="DejaVuSans-37" d="M 525 4666 
L 3525 4666 
L 3525 4397 
L 1831 0 
L 1172 0 
L 2766 4134 
L 525 4134 
L 525 4666 
z
" transform="scale(0.015625)"/>
       </defs>
       <use xlink:href="#DejaVuSans-37"/>
       <use xlink:href="#DejaVuSans-30" x="63.623047"/>
      </g>
     </g>
    </g>
    <g id="ytick_9">
     <g id="line2d_14">
      <g>
       <use xlink:href="#mbf91b3594f" x="99" y="53.386129" style="stroke: #000000; stroke-width: 0.8"/>
      </g>
     </g>
     <g id="text_14">
      <!-- 80 -->
      <g transform="translate(79.275 57.185347)scale(0.1 -0.1)">
       <use xlink:href="#DejaVuSans-38"/>
       <use xlink:href="#DejaVuSans-30" x="63.623047"/>
      </g>
     </g>
    </g>
    <g id="text_15">
     <!-- Average age -->
     <g transform="translate(73.195312 231.416719)rotate(-90)scale(0.1 -0.1)">
      <defs>
       <path id="DejaVuSans-41" d="M 2188 4044 
L 1331 1722 
L 3047 1722 
L 2188 4044 
z
M 1831 4666 
L 2547 4666 
L 4325 0 
L 3669 0 
L 3244 1197 
L 1141 1197 
L 716 0 
L 50 0 
L 1831 4666 
z
" transform="scale(0.015625)"/>
       <path id="DejaVuSans-76" d="M 191 3500 
L 800 3500 
L 1894 563 
L 2988 3500 
L 3597 3500 
L 2284 0 
L 1503 0 
L 191 3500 
z
" transform="scale(0.015625)"/>
       <path id="DejaVuSans-65" d="M 3597 1894 
L 3597 1613 
L 953 1613 
Q 991 1019 1311 708 
Q 1631 397 2203 397 
Q 2534 397 2845 478 
Q 3156 559 3463 722 
L 3463 178 
Q 3153 47 2828 -22 
Q 2503 -91 2169 -91 
Q 1331 -91 842 396 
Q 353 884 353 1716 
Q 353 2575 817 3079 
Q 1281 3584 2069 3584 
Q 2775 3584 3186 3129 
Q 3597 2675 3597 1894 
z
M 3022 2063 
Q 3016 2534 2758 2815 
Q 2500 3097 2075 3097 
Q 1594 3097 1305 2825 
Q 1016 2553 972 2059 
L 3022 2063 
z
" transform="scale(0.015625)"/>
       <path id="DejaVuSans-72" d="M 2631 2963 
Q 2534 3019 2420 3045 
Q 2306 3072 2169 3072 
Q 1681 3072 1420 2755 
Q 1159 2438 1159 1844 
L 1159 0 
L 581 0 
L 581 3500 
L 1159 3500 
L 1159 2956 
Q 1341 3275 1631 3429 
Q 1922 3584 2338 3584 
Q 2397 3584 2469 3576 
Q 2541 3569 2628 3553 
L 2631 2963 
z
" transform="scale(0.015625)"/>
       <path id="DejaVuSans-61" d="M 2194 1759 
Q 1497 1759 1228 1600 
Q 959 1441 959 1056 
Q 959 750 1161 570 
Q 1363 391 1709 391 
Q 2188 391 2477 730 
Q 2766 1069 2766 1631 
L 2766 1759 
L 2194 1759 
z
M 3341 1997 
L 3341 0 
L 2766 0 
L 2766 531 
Q 2569 213 2275 61 
Q 1981 -91 1556 -91 
Q 1019 -91 701 211 
Q 384 513 384 1019 
Q 384 1609 779 1909 
Q 1175 2209 1959 2209 
L 2766 2209 
L 2766 2266 
Q 2766 2663 2505 2880 
Q 2244 3097 1772 3097 
Q 1472 3097 1187 3025 
Q 903 2953 641 2809 
L 641 3341 
Q 956 3463 1253 3523 
Q 1550 3584 1831 3584 
Q 2591 3584 2966 3190 
Q 3341 2797 3341 1997 
z
" transform="scale(0.015625)"/>
       <path id="DejaVuSans-67" d="M 2906 1791 
Q 2906 2416 2648 2759 
Q 2391 3103 1925 3103 
Q 1463 3103 1205 2759 
Q 947 2416 947 1791 
Q 947 1169 1205 825 
Q 1463 481 1925 481 
Q 2391 481 2648 825 
Q 2906 1169 2906 1791 
z
M 3481 434 
Q 3481 -459 3084 -895 
Q 2688 -1331 1869 -1331 
Q 1566 -1331 1297 -1286 
Q 1028 -1241 775 -1147 
L 775 -588 
Q 1028 -725 1275 -790 
Q 1522 -856 1778 -856 
Q 2344 -856 2625 -561 
Q 2906 -266 2906 331 
L 2906 616 
Q 2728 306 2450 153 
Q 2172 0 1784 0 
Q 1141 0 747 490 
Q 353 981 353 1791 
Q 353 2603 747 3093 
Q 1141 3584 1784 3584 
Q 2172 3584 2450 3431 
Q 2728 3278 2906 2969 
L 2906 3500 
L 3481 3500 
L 3481 434 
z
" transform="scale(0.015625)"/>
       <path id="DejaVuSans-20" transform="scale(0.015625)"/>
      </defs>
      <use xlink:href="#DejaVuSans-41"/>
      <use xlink:href="#DejaVuSans-76" x="62.533203"/>
      <use xlink:href="#DejaVuSans-65" x="121.712891"/>
      <use xlink:href="#DejaVuSans-72" x="183.236328"/>
      <use xlink:href="#DejaVuSans-61" x="224.349609"/>
      <use xlink:href="#DejaVuSans-67" x="285.628906"/>
      <use xlink:href="#DejaVuSans-65" x="349.105469"/>
      <use xlink:href="#DejaVuSans-20" x="410.628906"/>
      <use xlink:href="#DejaVuSans-61" x="442.416016"/>
      <use xlink:href="#DejaVuSans-67" x="503.695312"/>
      <use xlink:href="#DejaVuSans-65" x="567.171875"/>
     </g>
    </g>
   </g>
   <g id="LineCollection_1">
    <path d="M 124.953488 249.224407 
L 124.953488 212.674322 
" clip-path="url(#p7d8c4593a3)" style="fill: none; stroke: #000000; stroke-width: 1.5"/>
    <path d="M 154.446089 281.927981 
L 154.446089 212.679765 
" clip-path="url(#p7d8c4593a3)" style="fill: none; stroke: #000000; stroke-width: 1.5"/>
    <path d="M 183.938689 267.794437 
L 183.938689 202.215424 
" clip-path="url(#p7d8c4593a3)" style="fill: none; stroke: #000000; stroke-width: 1.5"/>
    <path d="M 213.43129 257.710283 
L 213.43129 187.881342 
" clip-path="url(#p7d8c4593a3)" style="fill: none; stroke: #000000; stroke-width: 1.5"/>
    <path d="M 242.92389 244.290568 
L 242.92389 165.836873 
" clip-path="url(#p7d8c4593a3)" style="fill: none; stroke: #000000; stroke-width: 1.5"/>
    <path d="M 272.41649 250.24651 
L 272.41649 156.093158 
" clip-path="url(#p7d8c4593a3)" style="fill: none; stroke: #000000; stroke-width: 1.5"/>
    <path d="M 301.909091 251.320409 
L 301.909091 154.765218 
" clip-path="url(#p7d8c4593a3)" style="fill: none; stroke: #000000; stroke-width: 1.5"/>
    <path d="M 331.401691 246.490288 
L 331.401691 158.487146 
" clip-path="url(#p7d8c4593a3)" style="fill: none; stroke: #000000; stroke-width: 1.5"/>
    <path d="M 360.894292 239.459932 
L 360.894292 149.698622 
" clip-path="url(#p7d8c4593a3)" style="fill: none; stroke: #000000; stroke-width: 1.5"/>
   </g>
   <g id="LineCollection_2">
    <path d="M 116.105708 280.773336 
L 116.105708 259.627034 
" clip-path="url(#p7d8c4593a3)" style="fill: none; stroke: #000000; stroke-width: 1.5"/>
    <path d="M 145.598309 315.46751 
L 145.598309 256.084306 
" clip-path="url(#p7d8c4593a3)" style="fill: none; stroke: #000000; stroke-width: 1.5"/>
    <path d="M 175.090909 294.712245 
L 175.090909 257.031548 
" clip-path="url(#p7d8c4593a3)" style="fill: none; stroke: #000000; stroke-width: 1.5"/>
    <path d="M 204.58351 289.630716 
L 204.58351 231.704971 
" clip-path="url(#p7d8c4593a3)" style="fill: none; stroke: #000000; stroke-width: 1.5"/>
    <path d="M 234.07611 291.184348 
L 234.07611 210.645279 
" clip-path="url(#p7d8c4593a3)" style="fill: none; stroke: #000000; stroke-width: 1.5"/>
    <path d="M 263.56871 288.899479 
L 263.56871 202.682627 
" clip-path="url(#p7d8c4593a3)" style="fill: none; stroke: #000000; stroke-width: 1.5"/>
    <path d="M 293.061311 290.196594 
L 293.061311 201.412786 
" clip-path="url(#p7d8c4593a3)" style="fill: none; stroke: #000000; stroke-width: 1.5"/>
    <path d="M 322.553911 289.618684 
L 322.553911 198.518619 
" clip-path="url(#p7d8c4593a3)" style="fill: none; stroke: #000000; stroke-width: 1.5"/>
    <path d="M 352.046512 285.12515 
L 352.046512 194.672317 
" clip-path="url(#p7d8c4593a3)" style="fill: none; stroke: #000000; stroke-width: 1.5"/>
   </g>
   <g id="line2d_15">
    <path d="M 120.529598 252.013972 
L 150.022199 237.341641 
L 179.514799 227.809299 
L 209.0074 208.688542 
L 238.5 186.016521 
L 267.9926 162.017447 
L 297.485201 143.849925 
L 326.977801 127.046835 
L 356.470402 111.271744 
" clip-path="url(#p7d8c4593a3)" style="fill: none; stroke: #008000; stroke-width: 1.5; stroke-linecap: square"/>
   </g>
   <g id="patch_21">
    <path d="M 99 352.44 
L 99 47.52 
" style="fill: none; stroke: #000000; stroke-width: 0.8; stroke-linejoin: miter; stroke-linecap: square"/>
   </g>
   <g id="patch_22">
    <path d="M 378 352.44 
L 378 47.52 
" style="fill: none; stroke: #000000; stroke-width: 0.8; stroke-linejoin: miter; stroke-linecap: square"/>
   </g>
   <g id="patch_23">
    <path d="M 99 352.44 
L 378 352.44 
" style="fill: none; stroke: #000000; stroke-width: 0.8; stroke-linejoin: miter; stroke-linecap: square"/>
   </g>
   <g id="patch_24">
    <path d="M 99 47.52 
L 378 47.52 
" style="fill: none; stroke: #000000; stroke-width: 0.8; stroke-linejoin: miter; stroke-linecap: square"/>
   </g>
   <g id="text_16">
    <!-- Indian movies -->
    <g transform="translate(196.514062 41.52)scale(0.12 -0.12)">
     <defs>
      <path id="DejaVuSans-49" d="M 628 4666 
L 1259 4666 
L 1259 0 
L 628 0 
L 628 4666 
z
" transform="scale(0.015625)"/>
      <path id="DejaVuSans-6e" d="M 3513 2113 
L 3513 0 
L 2938 0 
L 2938 2094 
Q 2938 2591 2744 2837 
Q 2550 3084 2163 3084 
Q 1697 3084 1428 2787 
Q 1159 2491 1159 1978 
L 1159 0 
L 581 0 
L 581 3500 
L 1159 3500 
L 1159 2956 
Q 1366 3272 1645 3428 
Q 1925 3584 2291 3584 
Q 2894 3584 3203 3211 
Q 3513 2838 3513 2113 
z
" transform="scale(0.015625)"/>
      <path id="DejaVuSans-64" d="M 2906 2969 
L 2906 4863 
L 3481 4863 
L 3481 0 
L 2906 0 
L 2906 525 
Q 2725 213 2448 61 
Q 2172 -91 1784 -91 
Q 1150 -91 751 415 
Q 353 922 353 1747 
Q 353 2572 751 3078 
Q 1150 3584 1784 3584 
Q 2172 3584 2448 3432 
Q 2725 3281 2906 2969 
z
M 947 1747 
Q 947 1113 1208 752 
Q 1469 391 1925 391 
Q 2381 391 2643 752 
Q 2906 1113 2906 1747 
Q 2906 2381 2643 2742 
Q 2381 3103 1925 3103 
Q 1469 3103 1208 2742 
Q 947 2381 947 1747 
z
" transform="scale(0.015625)"/>
      <path id="DejaVuSans-69" d="M 603 3500 
L 1178 3500 
L 1178 0 
L 603 0 
L 603 3500 
z
M 603 4863 
L 1178 4863 
L 1178 4134 
L 603 4134 
L 603 4863 
z
" transform="scale(0.015625)"/>
      <path id="DejaVuSans-6d" d="M 3328 2828 
Q 3544 3216 3844 3400 
Q 4144 3584 4550 3584 
Q 5097 3584 5394 3201 
Q 5691 2819 5691 2113 
L 5691 0 
L 5113 0 
L 5113 2094 
Q 5113 2597 4934 2840 
Q 4756 3084 4391 3084 
Q 3944 3084 3684 2787 
Q 3425 2491 3425 1978 
L 3425 0 
L 2847 0 
L 2847 2094 
Q 2847 2600 2669 2842 
Q 2491 3084 2119 3084 
Q 1678 3084 1418 2786 
Q 1159 2488 1159 1978 
L 1159 0 
L 581 0 
L 581 3500 
L 1159 3500 
L 1159 2956 
Q 1356 3278 1631 3431 
Q 1906 3584 2284 3584 
Q 2666 3584 2933 3390 
Q 3200 3197 3328 2828 
z
" transform="scale(0.015625)"/>
      <path id="DejaVuSans-6f" d="M 1959 3097 
Q 1497 3097 1228 2736 
Q 959 2375 959 1747 
Q 959 1119 1226 758 
Q 1494 397 1959 397 
Q 2419 397 2687 759 
Q 2956 1122 2956 1747 
Q 2956 2369 2687 2733 
Q 2419 3097 1959 3097 
z
M 1959 3584 
Q 2709 3584 3137 3096 
Q 3566 2609 3566 1747 
Q 3566 888 3137 398 
Q 2709 -91 1959 -91 
Q 1206 -91 779 398 
Q 353 888 353 1747 
Q 353 2609 779 3096 
Q 1206 3584 1959 3584 
z
" transform="scale(0.015625)"/>
      <path id="DejaVuSans-73" d="M 2834 3397 
L 2834 2853 
Q 2591 2978 2328 3040 
Q 2066 3103 1784 3103 
Q 1356 3103 1142 2972 
Q 928 2841 928 2578 
Q 928 2378 1081 2264 
Q 1234 2150 1697 2047 
L 1894 2003 
Q 2506 1872 2764 1633 
Q 3022 1394 3022 966 
Q 3022 478 2636 193 
Q 2250 -91 1575 -91 
Q 1294 -91 989 -36 
Q 684 19 347 128 
L 347 722 
Q 666 556 975 473 
Q 1284 391 1588 391 
Q 1994 391 2212 530 
Q 2431 669 2431 922 
Q 2431 1156 2273 1281 
Q 2116 1406 1581 1522 
L 1381 1569 
Q 847 1681 609 1914 
Q 372 2147 372 2553 
Q 372 3047 722 3315 
Q 1072 3584 1716 3584 
Q 2034 3584 2315 3537 
Q 2597 3491 2834 3397 
z
" transform="scale(0.015625)"/>
     </defs>
     <use xlink:href="#DejaVuSans-49"/>
     <use xlink:href="#DejaVuSans-6e" x="29.492188"/>
     <use xlink:href="#DejaVuSans-64" x="92.871094"/>
     <use xlink:href="#DejaVuSans-69" x="156.347656"/>
     <use xlink:href="#DejaVuSans-61" x="184.130859"/>
     <use xlink:href="#DejaVuSans-6e" x="245.410156"/>
     <use xlink:href="#DejaVuSans-20" x="308.789062"/>
     <use xlink:href="#DejaVuSans-6d" x="340.576172"/>
     <use xlink:href="#DejaVuSans-6f" x="437.988281"/>
     <use xlink:href="#DejaVuSans-76" x="499.169922"/>
     <use xlink:href="#DejaVuSans-69" x="558.349609"/>
     <use xlink:href="#DejaVuSans-65" x="586.132812"/>
     <use xlink:href="#DejaVuSans-73" x="647.65625"/>
    </g>
   </g>
   <g id="legend_1">
    <g id="patch_25">
     <path d="M 106 99.554375 
L 216.901563 99.554375 
Q 218.901563 99.554375 218.901563 97.554375 
L 218.901563 54.52 
Q 218.901563 52.52 216.901563 52.52 
L 106 52.52 
Q 104 52.52 104 54.52 
L 104 97.554375 
Q 104 99.554375 106 99.554375 
z
" style="fill: #ffffff; opacity: 0.8; stroke: #cccccc; stroke-linejoin: miter"/>
    </g>
    <g id="line2d_16">
     <path d="M 108 60.618437 
L 118 60.618437 
L 128 60.618437 
" style="fill: none; stroke: #008000; stroke-width: 1.5; stroke-linecap: square"/>
    </g>
    <g id="text_17">
     <!-- Life expectancy -->
     <g transform="translate(136 64.118437)scale(0.1 -0.1)">
      <defs>
       <path id="DejaVuSans-4c" d="M 628 4666 
L 1259 4666 
L 1259 531 
L 3531 531 
L 3531 0 
L 628 0 
L 628 4666 
z
" transform="scale(0.015625)"/>
       <path id="DejaVuSans-66" d="M 2375 4863 
L 2375 4384 
L 1825 4384 
Q 1516 4384 1395 4259 
Q 1275 4134 1275 3809 
L 1275 3500 
L 2222 3500 
L 2222 3053 
L 1275 3053 
L 1275 0 
L 697 0 
L 697 3053 
L 147 3053 
L 147 3500 
L 697 3500 
L 697 3744 
Q 697 4328 969 4595 
Q 1241 4863 1831 4863 
L 2375 4863 
z
" transform="scale(0.015625)"/>
       <path id="DejaVuSans-78" d="M 3513 3500 
L 2247 1797 
L 3578 0 
L 2900 0 
L 1881 1375 
L 863 0 
L 184 0 
L 1544 1831 
L 300 3500 
L 978 3500 
L 1906 2253 
L 2834 3500 
L 3513 3500 
z
" transform="scale(0.015625)"/>
       <path id="DejaVuSans-70" d="M 1159 525 
L 1159 -1331 
L 581 -1331 
L 581 3500 
L 1159 3500 
L 1159 2969 
Q 1341 3281 1617 3432 
Q 1894 3584 2278 3584 
Q 2916 3584 3314 3078 
Q 3713 2572 3713 1747 
Q 3713 922 3314 415 
Q 2916 -91 2278 -91 
Q 1894 -91 1617 61 
Q 1341 213 1159 525 
z
M 3116 1747 
Q 3116 2381 2855 2742 
Q 2594 3103 2138 3103 
Q 1681 3103 1420 2742 
Q 1159 2381 1159 1747 
Q 1159 1113 1420 752 
Q 1681 391 2138 391 
Q 2594 391 2855 752 
Q 3116 1113 3116 1747 
z
" transform="scale(0.015625)"/>
       <path id="DejaVuSans-63" d="M 3122 3366 
L 3122 2828 
Q 2878 2963 2633 3030 
Q 2388 3097 2138 3097 
Q 1578 3097 1268 2742 
Q 959 2388 959 1747 
Q 959 1106 1268 751 
Q 1578 397 2138 397 
Q 2388 397 2633 464 
Q 2878 531 3122 666 
L 3122 134 
Q 2881 22 2623 -34 
Q 2366 -91 2075 -91 
Q 1284 -91 818 406 
Q 353 903 353 1747 
Q 353 2603 823 3093 
Q 1294 3584 2113 3584 
Q 2378 3584 2631 3529 
Q 2884 3475 3122 3366 
z
" transform="scale(0.015625)"/>
       <path id="DejaVuSans-74" d="M 1172 4494 
L 1172 3500 
L 2356 3500 
L 2356 3053 
L 1172 3053 
L 1172 1153 
Q 1172 725 1289 603 
Q 1406 481 1766 481 
L 2356 481 
L 2356 0 
L 1766 0 
Q 1100 0 847 248 
Q 594 497 594 1153 
L 594 3053 
L 172 3053 
L 172 3500 
L 594 3500 
L 594 4494 
L 1172 4494 
z
" transform="scale(0.015625)"/>
       <path id="DejaVuSans-79" d="M 2059 -325 
Q 1816 -950 1584 -1140 
Q 1353 -1331 966 -1331 
L 506 -1331 
L 506 -850 
L 844 -850 
Q 1081 -850 1212 -737 
Q 1344 -625 1503 -206 
L 1606 56 
L 191 3500 
L 800 3500 
L 1894 763 
L 2988 3500 
L 3597 3500 
L 2059 -325 
z
" transform="scale(0.015625)"/>
      </defs>
      <use xlink:href="#DejaVuSans-4c"/>
      <use xlink:href="#DejaVuSans-69" x="55.712891"/>
      <use xlink:href="#DejaVuSans-66" x="83.496094"/>
      <use xlink:href="#DejaVuSans-65" x="118.701172"/>
      <use xlink:href="#DejaVuSans-20" x="180.224609"/>
      <use xlink:href="#DejaVuSans-65" x="212.011719"/>
      <use xlink:href="#DejaVuSans-78" x="271.785156"/>
      <use xlink:href="#DejaVuSans-70" x="330.964844"/>
      <use xlink:href="#DejaVuSans-65" x="394.441406"/>
      <use xlink:href="#DejaVuSans-63" x="455.964844"/>
      <use xlink:href="#DejaVuSans-74" x="510.945312"/>
      <use xlink:href="#DejaVuSans-61" x="550.154297"/>
      <use xlink:href="#DejaVuSans-6e" x="611.433594"/>
      <use xlink:href="#DejaVuSans-63" x="674.8125"/>
      <use xlink:href="#DejaVuSans-79" x="729.792969"/>
     </g>
    </g>
    <g id="patch_26">
     <path d="M 108 78.796562 
L 128 78.796562 
L 128 71.796562 
L 108 71.796562 
z
" style="fill: #0000ff"/>
    </g>
    <g id="text_18">
     <!-- Men -->
     <g transform="translate(136 78.796562)scale(0.1 -0.1)">
      <defs>
       <path id="DejaVuSans-4d" d="M 628 4666 
L 1569 4666 
L 2759 1491 
L 3956 4666 
L 4897 4666 
L 4897 0 
L 4281 0 
L 4281 4097 
L 3078 897 
L 2444 897 
L 1241 4097 
L 1241 0 
L 628 0 
L 628 4666 
z
" transform="scale(0.015625)"/>
      </defs>
      <use xlink:href="#DejaVuSans-4d"/>
      <use xlink:href="#DejaVuSans-65" x="86.279297"/>
      <use xlink:href="#DejaVuSans-6e" x="147.802734"/>
     </g>
    </g>
    <g id="patch_27">
     <path d="M 108 93.474687 
L 128 93.474687 
L 128 86.474687 
L 108 86.474687 
z
" style="fill: #ff0000"/>
    </g>
    <g id="text_19">
     <!-- Women -->
     <g transform="translate(136 93.474687)scale(0.1 -0.1)">
      <defs>
       <path id="DejaVuSans-57" d="M 213 4666 
L 850 4666 
L 1831 722 
L 2809 4666 
L 3519 4666 
L 4500 722 
L 5478 4666 
L 6119 4666 
L 4947 0 
L 4153 0 
L 3169 4050 
L 2175 0 
L 1381 0 
L 213 4666 
z
" transform="scale(0.015625)"/>
      </defs>
      <use xlink:href="#DejaVuSans-57"/>
      <use xlink:href="#DejaVuSans-6f" x="93.001953"/>
      <use xlink:href="#DejaVuSans-6d" x="154.183594"/>
      <use xlink:href="#DejaVuSans-65" x="251.595703"/>
      <use xlink:href="#DejaVuSans-6e" x="313.119141"/>
     </g>
    </g>
   </g>
  </g>
  <g id="axes_2">
   <g id="patch_28">
    <path d="M 433.8 352.44 
L 712.8 352.44 
L 712.8 47.52 
L 433.8 47.52 
z
" style="fill: #ffffff"/>
   </g>
   <g id="patch_29">
    <path d="M 455.329598 352.44 
L 464.177378 352.44 
L 464.177378 217.111388 
L 455.329598 217.111388 
z
" clip-path="url(#pd2fe2d4801)" style="fill: #0000ff"/>
   </g>
   <g id="patch_30">
    <path d="M 484.822199 352.44 
L 493.669979 352.44 
L 493.669979 204.189629 
L 484.822199 204.189629 
z
" clip-path="url(#pd2fe2d4801)" style="fill: #0000ff"/>
   </g>
   <g id="patch_31">
    <path d="M 514.314799 352.44 
L 523.162579 352.44 
L 523.162579 195.530836 
L 514.314799 195.530836 
z
" clip-path="url(#pd2fe2d4801)" style="fill: #0000ff"/>
   </g>
   <g id="patch_32">
    <path d="M 543.8074 352.44 
L 552.65518 352.44 
L 552.65518 195.033421 
L 543.8074 195.033421 
z
" clip-path="url(#pd2fe2d4801)" style="fill: #0000ff"/>
   </g>
   <g id="patch_33">
    <path d="M 573.3 352.44 
L 582.14778 352.44 
L 582.14778 190.323525 
L 573.3 190.323525 
z
" clip-path="url(#pd2fe2d4801)" style="fill: #0000ff"/>
   </g>
   <g id="patch_34">
    <path d="M 602.7926 352.44 
L 611.640381 352.44 
L 611.640381 193.17826 
L 602.7926 193.17826 
z
" clip-path="url(#pd2fe2d4801)" style="fill: #0000ff"/>
   </g>
   <g id="patch_35">
    <path d="M 632.285201 352.44 
L 641.132981 352.44 
L 641.132981 198.712106 
L 632.285201 198.712106 
z
" clip-path="url(#pd2fe2d4801)" style="fill: #0000ff"/>
   </g>
   <g id="patch_36">
    <path d="M 661.777801 352.44 
L 670.625581 352.44 
L 670.625581 198.479486 
L 661.777801 198.479486 
z
" clip-path="url(#pd2fe2d4801)" style="fill: #0000ff"/>
   </g>
   <g id="patch_37">
    <path d="M 691.270402 352.44 
L 700.118182 352.44 
L 700.118182 199.835013 
L 691.270402 199.835013 
z
" clip-path="url(#pd2fe2d4801)" style="fill: #0000ff"/>
   </g>
   <g id="patch_38">
    <path d="M 446.481818 352.44 
L 455.329598 352.44 
L 455.329598 246.322603 
L 446.481818 246.322603 
z
" clip-path="url(#pd2fe2d4801)" style="fill: #ff0000"/>
   </g>
   <g id="patch_39">
    <path d="M 475.974419 352.44 
L 484.822199 352.44 
L 484.822199 238.208798 
L 475.974419 238.208798 
z
" clip-path="url(#pd2fe2d4801)" style="fill: #ff0000"/>
   </g>
   <g id="patch_40">
    <path d="M 505.467019 352.44 
L 514.314799 352.44 
L 514.314799 228.320164 
L 505.467019 228.320164 
z
" clip-path="url(#pd2fe2d4801)" style="fill: #ff0000"/>
   </g>
   <g id="patch_41">
    <path d="M 534.959619 352.44 
L 543.8074 352.44 
L 543.8074 226.733905 
L 534.959619 226.733905 
z
" clip-path="url(#pd2fe2d4801)" style="fill: #ff0000"/>
   </g>
   <g id="patch_42">
    <path d="M 564.45222 352.44 
L 573.3 352.44 
L 573.3 221.697181 
L 564.45222 221.697181 
z
" clip-path="url(#pd2fe2d4801)" style="fill: #ff0000"/>
   </g>
   <g id="patch_43">
    <path d="M 593.94482 352.44 
L 602.7926 352.44 
L 602.7926 220.183593 
L 593.94482 220.183593 
z
" clip-path="url(#pd2fe2d4801)" style="fill: #ff0000"/>
   </g>
   <g id="patch_44">
    <path d="M 623.437421 352.44 
L 632.285201 352.44 
L 632.285201 223.826844 
L 623.437421 223.826844 
z
" clip-path="url(#pd2fe2d4801)" style="fill: #ff0000"/>
   </g>
   <g id="patch_45">
    <path d="M 652.930021 352.44 
L 661.777801 352.44 
L 661.777801 222.166897 
L 652.930021 222.166897 
z
" clip-path="url(#pd2fe2d4801)" style="fill: #ff0000"/>
   </g>
   <g id="patch_46">
    <path d="M 682.422622 352.44 
L 691.270402 352.44 
L 691.270402 223.170971 
L 682.422622 223.170971 
z
" clip-path="url(#pd2fe2d4801)" style="fill: #ff0000"/>
   </g>
   <g id="matplotlib.axis_3">
    <g id="xtick_6">
     <g id="line2d_17">
      <g>
       <use xlink:href="#m5f8868cb58" x="455.329598" y="352.44" style="stroke: #000000; stroke-width: 0.8"/>
      </g>
     </g>
     <g id="text_20">
      <!-- 1920 -->
      <g transform="translate(442.604598 367.038437)scale(0.1 -0.1)">
       <use xlink:href="#DejaVuSans-31"/>
       <use xlink:href="#DejaVuSans-39" x="63.623047"/>
       <use xlink:href="#DejaVuSans-32" x="127.246094"/>
       <use xlink:href="#DejaVuSans-30" x="190.869141"/>
      </g>
     </g>
    </g>
    <g id="xtick_7">
     <g id="line2d_18">
      <g>
       <use xlink:href="#m5f8868cb58" x="514.314799" y="352.44" style="stroke: #000000; stroke-width: 0.8"/>
      </g>
     </g>
     <g id="text_21">
      <!-- 1940 -->
      <g transform="translate(501.589799 367.038437)scale(0.1 -0.1)">
       <use xlink:href="#DejaVuSans-31"/>
       <use xlink:href="#DejaVuSans-39" x="63.623047"/>
       <use xlink:href="#DejaVuSans-34" x="127.246094"/>
       <use xlink:href="#DejaVuSans-30" x="190.869141"/>
      </g>
     </g>
    </g>
    <g id="xtick_8">
     <g id="line2d_19">
      <g>
       <use xlink:href="#m5f8868cb58" x="573.3" y="352.44" style="stroke: #000000; stroke-width: 0.8"/>
      </g>
     </g>
     <g id="text_22">
      <!-- 1960 -->
      <g transform="translate(560.575 367.038437)scale(0.1 -0.1)">
       <use xlink:href="#DejaVuSans-31"/>
       <use xlink:href="#DejaVuSans-39" x="63.623047"/>
       <use xlink:href="#DejaVuSans-36" x="127.246094"/>
       <use xlink:href="#DejaVuSans-30" x="190.869141"/>
      </g>
     </g>
    </g>
    <g id="xtick_9">
     <g id="line2d_20">
      <g>
       <use xlink:href="#m5f8868cb58" x="632.285201" y="352.44" style="stroke: #000000; stroke-width: 0.8"/>
      </g>
     </g>
     <g id="text_23">
      <!-- 1980 -->
      <g transform="translate(619.560201 367.038437)scale(0.1 -0.1)">
       <use xlink:href="#DejaVuSans-31"/>
       <use xlink:href="#DejaVuSans-39" x="63.623047"/>
       <use xlink:href="#DejaVuSans-38" x="127.246094"/>
       <use xlink:href="#DejaVuSans-30" x="190.869141"/>
      </g>
     </g>
    </g>
    <g id="xtick_10">
     <g id="line2d_21">
      <g>
       <use xlink:href="#m5f8868cb58" x="691.270402" y="352.44" style="stroke: #000000; stroke-width: 0.8"/>
      </g>
     </g>
     <g id="text_24">
      <!-- 2000 -->
      <g transform="translate(678.545402 367.038437)scale(0.1 -0.1)">
       <use xlink:href="#DejaVuSans-32"/>
       <use xlink:href="#DejaVuSans-30" x="63.623047"/>
       <use xlink:href="#DejaVuSans-30" x="127.246094"/>
       <use xlink:href="#DejaVuSans-30" x="190.869141"/>
      </g>
     </g>
    </g>
   </g>
   <g id="matplotlib.axis_4">
    <g id="ytick_10">
     <g id="line2d_22">
      <g>
       <use xlink:href="#mbf91b3594f" x="433.8" y="352.44" style="stroke: #000000; stroke-width: 0.8"/>
      </g>
     </g>
    </g>
    <g id="ytick_11">
     <g id="line2d_23">
      <g>
       <use xlink:href="#mbf91b3594f" x="433.8" y="315.058266" style="stroke: #000000; stroke-width: 0.8"/>
      </g>
     </g>
    </g>
    <g id="ytick_12">
     <g id="line2d_24">
      <g>
       <use xlink:href="#mbf91b3594f" x="433.8" y="277.676532" style="stroke: #000000; stroke-width: 0.8"/>
      </g>
     </g>
    </g>
    <g id="ytick_13">
     <g id="line2d_25">
      <g>
       <use xlink:href="#mbf91b3594f" x="433.8" y="240.294798" style="stroke: #000000; stroke-width: 0.8"/>
      </g>
     </g>
    </g>
    <g id="ytick_14">
     <g id="line2d_26">
      <g>
       <use xlink:href="#mbf91b3594f" x="433.8" y="202.913064" style="stroke: #000000; stroke-width: 0.8"/>
      </g>
     </g>
    </g>
    <g id="ytick_15">
     <g id="line2d_27">
      <g>
       <use xlink:href="#mbf91b3594f" x="433.8" y="165.53133" style="stroke: #000000; stroke-width: 0.8"/>
      </g>
     </g>
    </g>
    <g id="ytick_16">
     <g id="line2d_28">
      <g>
       <use xlink:href="#mbf91b3594f" x="433.8" y="128.149596" style="stroke: #000000; stroke-width: 0.8"/>
      </g>
     </g>
    </g>
    <g id="ytick_17">
     <g id="line2d_29">
      <g>
       <use xlink:href="#mbf91b3594f" x="433.8" y="90.767863" style="stroke: #000000; stroke-width: 0.8"/>
      </g>
     </g>
    </g>
    <g id="ytick_18">
     <g id="line2d_30">
      <g>
       <use xlink:href="#mbf91b3594f" x="433.8" y="53.386129" style="stroke: #000000; stroke-width: 0.8"/>
      </g>
     </g>
    </g>
   </g>
   <g id="LineCollection_3">
    <path d="M 459.753488 269.931707 
L 459.753488 164.291068 
" clip-path="url(#pd2fe2d4801)" style="fill: none; stroke: #000000; stroke-width: 1.5"/>
    <path d="M 489.246089 254.451485 
L 489.246089 153.927774 
" clip-path="url(#pd2fe2d4801)" style="fill: none; stroke: #000000; stroke-width: 1.5"/>
    <path d="M 518.738689 243.010454 
L 518.738689 148.051218 
" clip-path="url(#pd2fe2d4801)" style="fill: none; stroke: #000000; stroke-width: 1.5"/>
    <path d="M 548.23129 241.019988 
L 548.23129 149.046853 
" clip-path="url(#pd2fe2d4801)" style="fill: none; stroke: #000000; stroke-width: 1.5"/>
    <path d="M 577.72389 238.43848 
L 577.72389 142.208569 
" clip-path="url(#pd2fe2d4801)" style="fill: none; stroke: #000000; stroke-width: 1.5"/>
    <path d="M 607.21649 243.636502 
L 607.21649 142.720019 
" clip-path="url(#pd2fe2d4801)" style="fill: none; stroke: #000000; stroke-width: 1.5"/>
    <path d="M 636.709091 253.713436 
L 636.709091 143.710776 
" clip-path="url(#pd2fe2d4801)" style="fill: none; stroke: #000000; stroke-width: 1.5"/>
    <path d="M 666.201691 253.397647 
L 666.201691 143.561326 
" clip-path="url(#pd2fe2d4801)" style="fill: none; stroke: #000000; stroke-width: 1.5"/>
    <path d="M 695.694292 256.420075 
L 695.694292 143.249952 
" clip-path="url(#pd2fe2d4801)" style="fill: none; stroke: #000000; stroke-width: 1.5"/>
   </g>
   <g id="LineCollection_4">
    <path d="M 450.905708 290.697333 
L 450.905708 201.947873 
" clip-path="url(#pd2fe2d4801)" style="fill: none; stroke: #000000; stroke-width: 1.5"/>
    <path d="M 480.398309 285.864069 
L 480.398309 190.553526 
" clip-path="url(#pd2fe2d4801)" style="fill: none; stroke: #000000; stroke-width: 1.5"/>
    <path d="M 509.890909 278.553903 
L 509.890909 178.086425 
" clip-path="url(#pd2fe2d4801)" style="fill: none; stroke: #000000; stroke-width: 1.5"/>
    <path d="M 539.38351 273.145598 
L 539.38351 180.322213 
" clip-path="url(#pd2fe2d4801)" style="fill: none; stroke: #000000; stroke-width: 1.5"/>
    <path d="M 568.87611 274.687754 
L 568.87611 168.706609 
" clip-path="url(#pd2fe2d4801)" style="fill: none; stroke: #000000; stroke-width: 1.5"/>
    <path d="M 598.36871 272.044888 
L 598.36871 168.322299 
" clip-path="url(#pd2fe2d4801)" style="fill: none; stroke: #000000; stroke-width: 1.5"/>
    <path d="M 627.861311 276.899406 
L 627.861311 170.754282 
" clip-path="url(#pd2fe2d4801)" style="fill: none; stroke: #000000; stroke-width: 1.5"/>
    <path d="M 657.353911 275.647639 
L 657.353911 168.686155 
" clip-path="url(#pd2fe2d4801)" style="fill: none; stroke: #000000; stroke-width: 1.5"/>
    <path d="M 686.846512 276.781836 
L 686.846512 169.560105 
" clip-path="url(#pd2fe2d4801)" style="fill: none; stroke: #000000; stroke-width: 1.5"/>
   </g>
   <g id="line2d_31">
    <path d="M 455.329598 133.943765 
L 484.822199 122.972226 
L 514.314799 105.832701 
L 543.8074 93.814474 
L 573.3 89.889392 
L 602.7926 82.020537 
L 632.285201 73.46012 
L 661.777801 68.114532 
L 691.270402 62.04 
" clip-path="url(#pd2fe2d4801)" style="fill: none; stroke: #008000; stroke-width: 1.5; stroke-linecap: square"/>
   </g>
   <g id="patch_47">
    <path d="M 433.8 352.44 
L 433.8 47.52 
" style="fill: none; stroke: #000000; stroke-width: 0.8; stroke-linejoin: miter; stroke-linecap: square"/>
   </g>
   <g id="patch_48">
    <path d="M 712.8 352.44 
L 712.8 47.52 
" style="fill: none; stroke: #000000; stroke-width: 0.8; stroke-linejoin: miter; stroke-linecap: square"/>
   </g>
   <g id="patch_49">
    <path d="M 433.8 352.44 
L 712.8 352.44 
" style="fill: none; stroke: #000000; stroke-width: 0.8; stroke-linejoin: miter; stroke-linecap: square"/>
   </g>
   <g id="patch_50">
    <path d="M 433.8 47.52 
L 712.8 47.52 
" style="fill: none; stroke: #000000; stroke-width: 0.8; stroke-linejoin: miter; stroke-linecap: square"/>
   </g>
   <g id="text_25">
    <!-- American movies -->
    <g transform="translate(521.289375 41.52)scale(0.12 -0.12)">
     <use xlink:href="#DejaVuSans-41"/>
     <use xlink:href="#DejaVuSans-6d" x="68.408203"/>
     <use xlink:href="#DejaVuSans-65" x="165.820312"/>
     <use xlink:href="#DejaVuSans-72" x="227.34375"/>
     <use xlink:href="#DejaVuSans-69" x="268.457031"/>
     <use xlink:href="#DejaVuSans-63" x="296.240234"/>
     <use xlink:href="#DejaVuSans-61" x="351.220703"/>
     <use xlink:href="#DejaVuSans-6e" x="412.5"/>
     <use xlink:href="#DejaVuSans-20" x="475.878906"/>
     <use xlink:href="#DejaVuSans-6d" x="507.666016"/>
     <use xlink:href="#DejaVuSans-6f" x="605.078125"/>
     <use xlink:href="#DejaVuSans-76" x="666.259766"/>
     <use xlink:href="#DejaVuSans-69" x="725.439453"/>
     <use xlink:href="#DejaVuSans-65" x="753.222656"/>
     <use xlink:href="#DejaVuSans-73" x="814.746094"/>
    </g>
   </g>
  </g>
  <g id="text_26">
   <!-- Average age of female vs male actors separated by decade and origin -->
   <g transform="translate(184.581563 17.038125)scale(0.12 -0.12)">
    <defs>
     <path id="DejaVuSans-6c" d="M 603 4863 
L 1178 4863 
L 1178 0 
L 603 0 
L 603 4863 
z
" transform="scale(0.015625)"/>
     <path id="DejaVuSans-62" d="M 3116 1747 
Q 3116 2381 2855 2742 
Q 2594 3103 2138 3103 
Q 1681 3103 1420 2742 
Q 1159 2381 1159 1747 
Q 1159 1113 1420 752 
Q 1681 391 2138 391 
Q 2594 391 2855 752 
Q 3116 1113 3116 1747 
z
M 1159 2969 
Q 1341 3281 1617 3432 
Q 1894 3584 2278 3584 
Q 2916 3584 3314 3078 
Q 3713 2572 3713 1747 
Q 3713 922 3314 415 
Q 2916 -91 2278 -91 
Q 1894 -91 1617 61 
Q 1341 213 1159 525 
L 1159 0 
L 581 0 
L 581 4863 
L 1159 4863 
L 1159 2969 
z
" transform="scale(0.015625)"/>
    </defs>
    <use xlink:href="#DejaVuSans-41"/>
    <use xlink:href="#DejaVuSans-76" x="62.533203"/>
    <use xlink:href="#DejaVuSans-65" x="121.712891"/>
    <use xlink:href="#DejaVuSans-72" x="183.236328"/>
    <use xlink:href="#DejaVuSans-61" x="224.349609"/>
    <use xlink:href="#DejaVuSans-67" x="285.628906"/>
    <use xlink:href="#DejaVuSans-65" x="349.105469"/>
    <use xlink:href="#DejaVuSans-20" x="410.628906"/>
    <use xlink:href="#DejaVuSans-61" x="442.416016"/>
    <use xlink:href="#DejaVuSans-67" x="503.695312"/>
    <use xlink:href="#DejaVuSans-65" x="567.171875"/>
    <use xlink:href="#DejaVuSans-20" x="628.695312"/>
    <use xlink:href="#DejaVuSans-6f" x="660.482422"/>
    <use xlink:href="#DejaVuSans-66" x="721.664062"/>
    <use xlink:href="#DejaVuSans-20" x="756.869141"/>
    <use xlink:href="#DejaVuSans-66" x="788.65625"/>
    <use xlink:href="#DejaVuSans-65" x="823.861328"/>
    <use xlink:href="#DejaVuSans-6d" x="885.384766"/>
    <use xlink:href="#DejaVuSans-61" x="982.796875"/>
    <use xlink:href="#DejaVuSans-6c" x="1044.076172"/>
    <use xlink:href="#DejaVuSans-65" x="1071.859375"/>
    <use xlink:href="#DejaVuSans-20" x="1133.382812"/>
    <use xlink:href="#DejaVuSans-76" x="1165.169922"/>
    <use xlink:href="#DejaVuSans-73" x="1224.349609"/>
    <use xlink:href="#DejaVuSans-20" x="1276.449219"/>
    <use xlink:href="#DejaVuSans-6d" x="1308.236328"/>
    <use xlink:href="#DejaVuSans-61" x="1405.648438"/>
    <use xlink:href="#DejaVuSans-6c" x="1466.927734"/>
    <use xlink:href="#DejaVuSans-65" x="1494.710938"/>
    <use xlink:href="#DejaVuSans-20" x="1556.234375"/>
    <use xlink:href="#DejaVuSans-61" x="1588.021484"/>
    <use xlink:href="#DejaVuSans-63" x="1649.300781"/>
    <use xlink:href="#DejaVuSans-74" x="1704.28125"/>
    <use xlink:href="#DejaVuSans-6f" x="1743.490234"/>
    <use xlink:href="#DejaVuSans-72" x="1804.671875"/>
    <use xlink:href="#DejaVuSans-73" x="1845.785156"/>
    <use xlink:href="#DejaVuSans-20" x="1897.884766"/>
    <use xlink:href="#DejaVuSans-73" x="1929.671875"/>
    <use xlink:href="#DejaVuSans-65" x="1981.771484"/>
    <use xlink:href="#DejaVuSans-70" x="2043.294922"/>
    <use xlink:href="#DejaVuSans-61" x="2106.771484"/>
    <use xlink:href="#DejaVuSans-72" x="2168.050781"/>
    <use xlink:href="#DejaVuSans-61" x="2209.164062"/>
    <use xlink:href="#DejaVuSans-74" x="2270.443359"/>
    <use xlink:href="#DejaVuSans-65" x="2309.652344"/>
    <use xlink:href="#DejaVuSans-64" x="2371.175781"/>
    <use xlink:href="#DejaVuSans-20" x="2434.652344"/>
    <use xlink:href="#DejaVuSans-62" x="2466.439453"/>
    <use xlink:href="#DejaVuSans-79" x="2529.916016"/>
    <use xlink:href="#DejaVuSans-20" x="2589.095703"/>
    <use xlink:href="#DejaVuSans-64" x="2620.882812"/>
    <use xlink:href="#DejaVuSans-65" x="2684.359375"/>
    <use xlink:href="#DejaVuSans-63" x="2745.882812"/>
    <use xlink:href="#DejaVuSans-61" x="2800.863281"/>
    <use xlink:href="#DejaVuSans-64" x="2862.142578"/>
    <use xlink:href="#DejaVuSans-65" x="2925.619141"/>
    <use xlink:href="#DejaVuSans-20" x="2987.142578"/>
    <use xlink:href="#DejaVuSans-61" x="3018.929688"/>
    <use xlink:href="#DejaVuSans-6e" x="3080.208984"/>
    <use xlink:href="#DejaVuSans-64" x="3143.587891"/>
    <use xlink:href="#DejaVuSans-20" x="3207.064453"/>
    <use xlink:href="#DejaVuSans-6f" x="3238.851562"/>
    <use xlink:href="#DejaVuSans-72" x="3300.033203"/>
    <use xlink:href="#DejaVuSans-69" x="3341.146484"/>
    <use xlink:href="#DejaVuSans-67" x="3368.929688"/>
    <use xlink:href="#DejaVuSans-69" x="3432.40625"/>
    <use xlink:href="#DejaVuSans-6e" x="3460.189453"/>
   </g>
  </g>
 </g>
 <defs>
  <clipPath id="p7d8c4593a3">
   <rect x="99" y="47.52" width="279" height="304.92"/>
  </clipPath>
  <clipPath id="pd2fe2d4801">
   <rect x="433.8" y="47.52" width="279" height="304.92"/>
  </clipPath>
 </defs>
</svg>
