<?xml version="1.0" encoding="utf-8" standalone="no"?>
<!DOCTYPE svg PUBLIC "-//W3C//DTD SVG 1.1//EN"
  "http://www.w3.org/Graphics/SVG/1.1/DTD/svg11.dtd">
<svg xmlns:xlink="http://www.w3.org/1999/xlink" width="792pt" height="288pt" viewBox="0 0 792 288" xmlns="http://www.w3.org/2000/svg" version="1.1">
 <metadata>
  <rdf:RDF xmlns:dc="http://purl.org/dc/elements/1.1/" xmlns:cc="http://creativecommons.org/ns#" xmlns:rdf="http://www.w3.org/1999/02/22-rdf-syntax-ns#">
   <cc:Work>
    <dc:type rdf:resource="http://purl.org/dc/dcmitype/StillImage"/>
    <dc:date>2022-12-23T01:44:24.053253</dc:date>
    <dc:format>image/svg+xml</dc:format>
    <dc:creator>
     <cc:Agent>
      <dc:title>Matplotlib v3.5.2, https://matplotlib.org/</dc:title>
     </cc:Agent>
    </dc:creator>
   </cc:Work>
  </rdf:RDF>
 </metadata>
 <defs>
  <style type="text/css">*{stroke-linejoin: round; stroke-linecap: butt}</style>
 </defs>
 <g id="figure_1">
  <g id="patch_1">
   <path d="M 0 288 
L 792 288 
L 792 0 
L 0 0 
z
" style="fill: #ffffff"/>
  </g>
  <g id="axes_1">
   <g id="patch_2">
    <path d="M 99 256.32 
L 279.529412 256.32 
L 279.529412 34.56 
L 99 34.56 
z
" style="fill: #ffffff"/>
   </g>
   <g id="patch_3">
    <path d="M 112.930917 256.32 
L 118.655951 256.32 
L 118.655951 104.145962 
L 112.930917 104.145962 
z
" clip-path="url(#p28d43f200f)" style="fill: #0000ff"/>
   </g>
   <g id="patch_4">
    <path d="M 132.014364 256.32 
L 137.739398 256.32 
L 137.739398 106.884666 
L 132.014364 106.884666 
z
" clip-path="url(#p28d43f200f)" style="fill: #0000ff"/>
   </g>
   <g id="patch_5">
    <path d="M 151.097811 256.32 
L 156.822845 256.32 
L 156.822845 108.258144 
L 151.097811 108.258144 
z
" clip-path="url(#p28d43f200f)" style="fill: #0000ff"/>
   </g>
   <g id="patch_6">
    <path d="M 170.181259 256.32 
L 175.906293 256.32 
L 175.906293 103.772396 
L 170.181259 103.772396 
z
" clip-path="url(#p28d43f200f)" style="fill: #0000ff"/>
   </g>
   <g id="patch_7">
    <path d="M 189.264706 256.32 
L 194.98974 256.32 
L 194.98974 96.927336 
L 189.264706 96.927336 
z
" clip-path="url(#p28d43f200f)" style="fill: #0000ff"/>
   </g>
   <g id="patch_8">
    <path d="M 208.348153 256.32 
L 214.073187 256.32 
L 214.073187 101.650773 
L 208.348153 101.650773 
z
" clip-path="url(#p28d43f200f)" style="fill: #0000ff"/>
   </g>
   <g id="patch_9">
    <path d="M 227.431601 256.32 
L 233.156635 256.32 
L 233.156635 104.028067 
L 227.431601 104.028067 
z
" clip-path="url(#p28d43f200f)" style="fill: #0000ff"/>
   </g>
   <g id="patch_10">
    <path d="M 246.515048 256.32 
L 252.240082 256.32 
L 252.240082 104.419508 
L 246.515048 104.419508 
z
" clip-path="url(#p28d43f200f)" style="fill: #0000ff"/>
   </g>
   <g id="patch_11">
    <path d="M 265.598495 256.32 
L 271.323529 256.32 
L 271.323529 103.390954 
L 265.598495 103.390954 
z
" clip-path="url(#p28d43f200f)" style="fill: #0000ff"/>
   </g>
   <g id="patch_12">
    <path d="M 107.205882 256.32 
L 112.930917 256.32 
L 112.930917 146.885441 
L 107.205882 146.885441 
z
" clip-path="url(#p28d43f200f)" style="fill: #ff0000"/>
   </g>
   <g id="patch_13">
    <path d="M 126.28933 256.32 
L 132.014364 256.32 
L 132.014364 156.115628 
L 126.28933 156.115628 
z
" clip-path="url(#p28d43f200f)" style="fill: #ff0000"/>
   </g>
   <g id="patch_14">
    <path d="M 145.372777 256.32 
L 151.097811 256.32 
L 151.097811 142.794798 
L 145.372777 142.794798 
z
" clip-path="url(#p28d43f200f)" style="fill: #ff0000"/>
   </g>
   <g id="patch_15">
    <path d="M 164.456224 256.32 
L 170.181259 256.32 
L 170.181259 140.744806 
L 164.456224 140.744806 
z
" clip-path="url(#p28d43f200f)" style="fill: #ff0000"/>
   </g>
   <g id="patch_16">
    <path d="M 183.539672 256.32 
L 189.264706 256.32 
L 189.264706 142.929523 
L 183.539672 142.929523 
z
" clip-path="url(#p28d43f200f)" style="fill: #ff0000"/>
   </g>
   <g id="patch_17">
    <path d="M 202.623119 256.32 
L 208.348153 256.32 
L 208.348153 133.931345 
L 202.623119 133.931345 
z
" clip-path="url(#p28d43f200f)" style="fill: #ff0000"/>
   </g>
   <g id="patch_18">
    <path d="M 221.706566 256.32 
L 227.431601 256.32 
L 227.431601 140.134632 
L 221.706566 140.134632 
z
" clip-path="url(#p28d43f200f)" style="fill: #ff0000"/>
   </g>
   <g id="patch_19">
    <path d="M 240.790014 256.32 
L 246.515048 256.32 
L 246.515048 138.49087 
L 240.790014 138.49087 
z
" clip-path="url(#p28d43f200f)" style="fill: #ff0000"/>
   </g>
   <g id="patch_20">
    <path d="M 259.873461 256.32 
L 265.598495 256.32 
L 265.598495 137.954189 
L 259.873461 137.954189 
z
" clip-path="url(#p28d43f200f)" style="fill: #ff0000"/>
   </g>
   <g id="matplotlib.axis_1">
    <g id="xtick_1">
     <g id="line2d_1">
      <defs>
       <path id="m93854ceb33" d="M 0 0 
L 0 3.5 
" style="stroke: #000000; stroke-width: 0.8"/>
      </defs>
      <g>
       <use xlink:href="#m93854ceb33" x="112.930917" y="256.32" style="stroke: #000000; stroke-width: 0.8"/>
      </g>
     </g>
     <g id="text_1">
      <!-- 1920 -->
      <g transform="translate(100.205917 270.918437)scale(0.1 -0.1)">
       <defs>
        <path id="DejaVuSans-31" d="M 794 531 
L 1825 531 
L 1825 4091 
L 703 3866 
L 703 4441 
L 1819 4666 
L 2450 4666 
L 2450 531 
L 3481 531 
L 3481 0 
L 794 0 
L 794 531 
z
" transform="scale(0.015625)"/>
        <path id="DejaVuSans-39" d="M 703 97 
L 703 672 
Q 941 559 1184 500 
Q 1428 441 1663 441 
Q 2288 441 2617 861 
Q 2947 1281 2994 2138 
Q 2813 1869 2534 1725 
Q 2256 1581 1919 1581 
Q 1219 1581 811 2004 
Q 403 2428 403 3163 
Q 403 3881 828 4315 
Q 1253 4750 1959 4750 
Q 2769 4750 3195 4129 
Q 3622 3509 3622 2328 
Q 3622 1225 3098 567 
Q 2575 -91 1691 -91 
Q 1453 -91 1209 -44 
Q 966 3 703 97 
z
M 1959 2075 
Q 2384 2075 2632 2365 
Q 2881 2656 2881 3163 
Q 2881 3666 2632 3958 
Q 2384 4250 1959 4250 
Q 1534 4250 1286 3958 
Q 1038 3666 1038 3163 
Q 1038 2656 1286 2365 
Q 1534 2075 1959 2075 
z
" transform="scale(0.015625)"/>
        <path id="DejaVuSans-32" d="M 1228 531 
L 3431 531 
L 3431 0 
L 469 0 
L 469 531 
Q 828 903 1448 1529 
Q 2069 2156 2228 2338 
Q 2531 2678 2651 2914 
Q 2772 3150 2772 3378 
Q 2772 3750 2511 3984 
Q 2250 4219 1831 4219 
Q 1534 4219 1204 4116 
Q 875 4013 500 3803 
L 500 4441 
Q 881 4594 1212 4672 
Q 1544 4750 1819 4750 
Q 2544 4750 2975 4387 
Q 3406 4025 3406 3419 
Q 3406 3131 3298 2873 
Q 3191 2616 2906 2266 
Q 2828 2175 2409 1742 
Q 1991 1309 1228 531 
z
" transform="scale(0.015625)"/>
        <path id="DejaVuSans-30" d="M 2034 4250 
Q 1547 4250 1301 3770 
Q 1056 3291 1056 2328 
Q 1056 1369 1301 889 
Q 1547 409 2034 409 
Q 2525 409 2770 889 
Q 3016 1369 3016 2328 
Q 3016 3291 2770 3770 
Q 2525 4250 2034 4250 
z
M 2034 4750 
Q 2819 4750 3233 4129 
Q 3647 3509 3647 2328 
Q 3647 1150 3233 529 
Q 2819 -91 2034 -91 
Q 1250 -91 836 529 
Q 422 1150 422 2328 
Q 422 3509 836 4129 
Q 1250 4750 2034 4750 
z
" transform="scale(0.015625)"/>
       </defs>
       <use xlink:href="#DejaVuSans-31"/>
       <use xlink:href="#DejaVuSans-39" x="63.623047"/>
       <use xlink:href="#DejaVuSans-32" x="127.246094"/>
       <use xlink:href="#DejaVuSans-30" x="190.869141"/>
      </g>
     </g>
    </g>
    <g id="xtick_2">
     <g id="line2d_2">
      <g>
       <use xlink:href="#m93854ceb33" x="151.097811" y="256.32" style="stroke: #000000; stroke-width: 0.8"/>
      </g>
     </g>
     <g id="text_2">
      <!-- 1940 -->
      <g transform="translate(138.372811 270.918437)scale(0.1 -0.1)">
       <defs>
        <path id="DejaVuSans-34" d="M 2419 4116 
L 825 1625 
L 2419 1625 
L 2419 4116 
z
M 2253 4666 
L 3047 4666 
L 3047 1625 
L 3713 1625 
L 3713 1100 
L 3047 1100 
L 3047 0 
L 2419 0 
L 2419 1100 
L 313 1100 
L 313 1709 
L 2253 4666 
z
" transform="scale(0.015625)"/>
       </defs>
       <use xlink:href="#DejaVuSans-31"/>
       <use xlink:href="#DejaVuSans-39" x="63.623047"/>
       <use xlink:href="#DejaVuSans-34" x="127.246094"/>
       <use xlink:href="#DejaVuSans-30" x="190.869141"/>
      </g>
     </g>
    </g>
    <g id="xtick_3">
     <g id="line2d_3">
      <g>
       <use xlink:href="#m93854ceb33" x="189.264706" y="256.32" style="stroke: #000000; stroke-width: 0.8"/>
      </g>
     </g>
     <g id="text_3">
      <!-- 1960 -->
      <g transform="translate(176.539706 270.918437)scale(0.1 -0.1)">
       <defs>
        <path id="DejaVuSans-36" d="M 2113 2584 
Q 1688 2584 1439 2293 
Q 1191 2003 1191 1497 
Q 1191 994 1439 701 
Q 1688 409 2113 409 
Q 2538 409 2786 701 
Q 3034 994 3034 1497 
Q 3034 2003 2786 2293 
Q 2538 2584 2113 2584 
z
M 3366 4563 
L 3366 3988 
Q 3128 4100 2886 4159 
Q 2644 4219 2406 4219 
Q 1781 4219 1451 3797 
Q 1122 3375 1075 2522 
Q 1259 2794 1537 2939 
Q 1816 3084 2150 3084 
Q 2853 3084 3261 2657 
Q 3669 2231 3669 1497 
Q 3669 778 3244 343 
Q 2819 -91 2113 -91 
Q 1303 -91 875 529 
Q 447 1150 447 2328 
Q 447 3434 972 4092 
Q 1497 4750 2381 4750 
Q 2619 4750 2861 4703 
Q 3103 4656 3366 4563 
z
" transform="scale(0.015625)"/>
       </defs>
       <use xlink:href="#DejaVuSans-31"/>
       <use xlink:href="#DejaVuSans-39" x="63.623047"/>
       <use xlink:href="#DejaVuSans-36" x="127.246094"/>
       <use xlink:href="#DejaVuSans-30" x="190.869141"/>
      </g>
     </g>
    </g>
    <g id="xtick_4">
     <g id="line2d_4">
      <g>
       <use xlink:href="#m93854ceb33" x="227.431601" y="256.32" style="stroke: #000000; stroke-width: 0.8"/>
      </g>
     </g>
     <g id="text_4">
      <!-- 1980 -->
      <g transform="translate(214.706601 270.918437)scale(0.1 -0.1)">
       <defs>
        <path id="DejaVuSans-38" d="M 2034 2216 
Q 1584 2216 1326 1975 
Q 1069 1734 1069 1313 
Q 1069 891 1326 650 
Q 1584 409 2034 409 
Q 2484 409 2743 651 
Q 3003 894 3003 1313 
Q 3003 1734 2745 1975 
Q 2488 2216 2034 2216 
z
M 1403 2484 
Q 997 2584 770 2862 
Q 544 3141 544 3541 
Q 544 4100 942 4425 
Q 1341 4750 2034 4750 
Q 2731 4750 3128 4425 
Q 3525 4100 3525 3541 
Q 3525 3141 3298 2862 
Q 3072 2584 2669 2484 
Q 3125 2378 3379 2068 
Q 3634 1759 3634 1313 
Q 3634 634 3220 271 
Q 2806 -91 2034 -91 
Q 1263 -91 848 271 
Q 434 634 434 1313 
Q 434 1759 690 2068 
Q 947 2378 1403 2484 
z
M 1172 3481 
Q 1172 3119 1398 2916 
Q 1625 2713 2034 2713 
Q 2441 2713 2670 2916 
Q 2900 3119 2900 3481 
Q 2900 3844 2670 4047 
Q 2441 4250 2034 4250 
Q 1625 4250 1398 4047 
Q 1172 3844 1172 3481 
z
" transform="scale(0.015625)"/>
       </defs>
       <use xlink:href="#DejaVuSans-31"/>
       <use xlink:href="#DejaVuSans-39" x="63.623047"/>
       <use xlink:href="#DejaVuSans-38" x="127.246094"/>
       <use xlink:href="#DejaVuSans-30" x="190.869141"/>
      </g>
     </g>
    </g>
    <g id="xtick_5">
     <g id="line2d_5">
      <g>
       <use xlink:href="#m93854ceb33" x="265.598495" y="256.32" style="stroke: #000000; stroke-width: 0.8"/>
      </g>
     </g>
     <g id="text_5">
      <!-- 2000 -->
      <g transform="translate(252.873495 270.918437)scale(0.1 -0.1)">
       <use xlink:href="#DejaVuSans-32"/>
       <use xlink:href="#DejaVuSans-30" x="63.623047"/>
       <use xlink:href="#DejaVuSans-30" x="127.246094"/>
       <use xlink:href="#DejaVuSans-30" x="190.869141"/>
      </g>
     </g>
    </g>
   </g>
   <g id="matplotlib.axis_2">
    <g id="ytick_1">
     <g id="line2d_6">
      <defs>
       <path id="m606d6e555c" d="M 0 0 
L -3.5 0 
" style="stroke: #000000; stroke-width: 0.8"/>
      </defs>
      <g>
       <use xlink:href="#m606d6e555c" x="99" y="256.32" style="stroke: #000000; stroke-width: 0.8"/>
      </g>
     </g>
     <g id="text_6">
      <!-- 0 -->
      <g transform="translate(85.6375 260.119219)scale(0.1 -0.1)">
       <use xlink:href="#DejaVuSans-30"/>
      </g>
     </g>
    </g>
    <g id="ytick_2">
     <g id="line2d_7">
      <g>
       <use xlink:href="#m606d6e555c" x="99" y="219.491062" style="stroke: #000000; stroke-width: 0.8"/>
      </g>
     </g>
     <g id="text_7">
      <!-- 10 -->
      <g transform="translate(79.275 223.290281)scale(0.1 -0.1)">
       <use xlink:href="#DejaVuSans-31"/>
       <use xlink:href="#DejaVuSans-30" x="63.623047"/>
      </g>
     </g>
    </g>
    <g id="ytick_3">
     <g id="line2d_8">
      <g>
       <use xlink:href="#m606d6e555c" x="99" y="182.662124" style="stroke: #000000; stroke-width: 0.8"/>
      </g>
     </g>
     <g id="text_8">
      <!-- 20 -->
      <g transform="translate(79.275 186.461343)scale(0.1 -0.1)">
       <use xlink:href="#DejaVuSans-32"/>
       <use xlink:href="#DejaVuSans-30" x="63.623047"/>
      </g>
     </g>
    </g>
    <g id="ytick_4">
     <g id="line2d_9">
      <g>
       <use xlink:href="#m606d6e555c" x="99" y="145.833186" style="stroke: #000000; stroke-width: 0.8"/>
      </g>
     </g>
     <g id="text_9">
      <!-- 30 -->
      <g transform="translate(79.275 149.632405)scale(0.1 -0.1)">
       <defs>
        <path id="DejaVuSans-33" d="M 2597 2516 
Q 3050 2419 3304 2112 
Q 3559 1806 3559 1356 
Q 3559 666 3084 287 
Q 2609 -91 1734 -91 
Q 1441 -91 1130 -33 
Q 819 25 488 141 
L 488 750 
Q 750 597 1062 519 
Q 1375 441 1716 441 
Q 2309 441 2620 675 
Q 2931 909 2931 1356 
Q 2931 1769 2642 2001 
Q 2353 2234 1838 2234 
L 1294 2234 
L 1294 2753 
L 1863 2753 
Q 2328 2753 2575 2939 
Q 2822 3125 2822 3475 
Q 2822 3834 2567 4026 
Q 2313 4219 1838 4219 
Q 1578 4219 1281 4162 
Q 984 4106 628 3988 
L 628 4550 
Q 988 4650 1302 4700 
Q 1616 4750 1894 4750 
Q 2613 4750 3031 4423 
Q 3450 4097 3450 3541 
Q 3450 3153 3228 2886 
Q 3006 2619 2597 2516 
z
" transform="scale(0.015625)"/>
       </defs>
       <use xlink:href="#DejaVuSans-33"/>
       <use xlink:href="#DejaVuSans-30" x="63.623047"/>
      </g>
     </g>
    </g>
    <g id="ytick_5">
     <g id="line2d_10">
      <g>
       <use xlink:href="#m606d6e555c" x="99" y="109.004248" style="stroke: #000000; stroke-width: 0.8"/>
      </g>
     </g>
     <g id="text_10">
      <!-- 40 -->
      <g transform="translate(79.275 112.803466)scale(0.1 -0.1)">
       <use xlink:href="#DejaVuSans-34"/>
       <use xlink:href="#DejaVuSans-30" x="63.623047"/>
      </g>
     </g>
    </g>
    <g id="ytick_6">
     <g id="line2d_11">
      <g>
       <use xlink:href="#m606d6e555c" x="99" y="72.17531" style="stroke: #000000; stroke-width: 0.8"/>
      </g>
     </g>
     <g id="text_11">
      <!-- 50 -->
      <g transform="translate(79.275 75.974528)scale(0.1 -0.1)">
       <defs>
        <path id="DejaVuSans-35" d="M 691 4666 
L 3169 4666 
L 3169 4134 
L 1269 4134 
L 1269 2991 
Q 1406 3038 1543 3061 
Q 1681 3084 1819 3084 
Q 2600 3084 3056 2656 
Q 3513 2228 3513 1497 
Q 3513 744 3044 326 
Q 2575 -91 1722 -91 
Q 1428 -91 1123 -41 
Q 819 9 494 109 
L 494 744 
Q 775 591 1075 516 
Q 1375 441 1709 441 
Q 2250 441 2565 725 
Q 2881 1009 2881 1497 
Q 2881 1984 2565 2268 
Q 2250 2553 1709 2553 
Q 1456 2553 1204 2497 
Q 953 2441 691 2322 
L 691 4666 
z
" transform="scale(0.015625)"/>
       </defs>
       <use xlink:href="#DejaVuSans-35"/>
       <use xlink:href="#DejaVuSans-30" x="63.623047"/>
      </g>
     </g>
    </g>
    <g id="ytick_7">
     <g id="line2d_12">
      <g>
       <use xlink:href="#m606d6e555c" x="99" y="35.346372" style="stroke: #000000; stroke-width: 0.8"/>
      </g>
     </g>
     <g id="text_12">
      <!-- 60 -->
      <g transform="translate(79.275 39.14559)scale(0.1 -0.1)">
       <use xlink:href="#DejaVuSans-36"/>
       <use xlink:href="#DejaVuSans-30" x="63.623047"/>
      </g>
     </g>
    </g>
    <g id="text_13">
     <!-- Average age -->
     <g transform="translate(73.195312 176.876719)rotate(-90)scale(0.1 -0.1)">
      <defs>
       <path id="DejaVuSans-41" d="M 2188 4044 
L 1331 1722 
L 3047 1722 
L 2188 4044 
z
M 1831 4666 
L 2547 4666 
L 4325 0 
L 3669 0 
L 3244 1197 
L 1141 1197 
L 716 0 
L 50 0 
L 1831 4666 
z
" transform="scale(0.015625)"/>
       <path id="DejaVuSans-76" d="M 191 3500 
L 800 3500 
L 1894 563 
L 2988 3500 
L 3597 3500 
L 2284 0 
L 1503 0 
L 191 3500 
z
" transform="scale(0.015625)"/>
       <path id="DejaVuSans-65" d="M 3597 1894 
L 3597 1613 
L 953 1613 
Q 991 1019 1311 708 
Q 1631 397 2203 397 
Q 2534 397 2845 478 
Q 3156 559 3463 722 
L 3463 178 
Q 3153 47 2828 -22 
Q 2503 -91 2169 -91 
Q 1331 -91 842 396 
Q 353 884 353 1716 
Q 353 2575 817 3079 
Q 1281 3584 2069 3584 
Q 2775 3584 3186 3129 
Q 3597 2675 3597 1894 
z
M 3022 2063 
Q 3016 2534 2758 2815 
Q 2500 3097 2075 3097 
Q 1594 3097 1305 2825 
Q 1016 2553 972 2059 
L 3022 2063 
z
" transform="scale(0.015625)"/>
       <path id="DejaVuSans-72" d="M 2631 2963 
Q 2534 3019 2420 3045 
Q 2306 3072 2169 3072 
Q 1681 3072 1420 2755 
Q 1159 2438 1159 1844 
L 1159 0 
L 581 0 
L 581 3500 
L 1159 3500 
L 1159 2956 
Q 1341 3275 1631 3429 
Q 1922 3584 2338 3584 
Q 2397 3584 2469 3576 
Q 2541 3569 2628 3553 
L 2631 2963 
z
" transform="scale(0.015625)"/>
       <path id="DejaVuSans-61" d="M 2194 1759 
Q 1497 1759 1228 1600 
Q 959 1441 959 1056 
Q 959 750 1161 570 
Q 1363 391 1709 391 
Q 2188 391 2477 730 
Q 2766 1069 2766 1631 
L 2766 1759 
L 2194 1759 
z
M 3341 1997 
L 3341 0 
L 2766 0 
L 2766 531 
Q 2569 213 2275 61 
Q 1981 -91 1556 -91 
Q 1019 -91 701 211 
Q 384 513 384 1019 
Q 384 1609 779 1909 
Q 1175 2209 1959 2209 
L 2766 2209 
L 2766 2266 
Q 2766 2663 2505 2880 
Q 2244 3097 1772 3097 
Q 1472 3097 1187 3025 
Q 903 2953 641 2809 
L 641 3341 
Q 956 3463 1253 3523 
Q 1550 3584 1831 3584 
Q 2591 3584 2966 3190 
Q 3341 2797 3341 1997 
z
" transform="scale(0.015625)"/>
       <path id="DejaVuSans-67" d="M 2906 1791 
Q 2906 2416 2648 2759 
Q 2391 3103 1925 3103 
Q 1463 3103 1205 2759 
Q 947 2416 947 1791 
Q 947 1169 1205 825 
Q 1463 481 1925 481 
Q 2391 481 2648 825 
Q 2906 1169 2906 1791 
z
M 3481 434 
Q 3481 -459 3084 -895 
Q 2688 -1331 1869 -1331 
Q 1566 -1331 1297 -1286 
Q 1028 -1241 775 -1147 
L 775 -588 
Q 1028 -725 1275 -790 
Q 1522 -856 1778 -856 
Q 2344 -856 2625 -561 
Q 2906 -266 2906 331 
L 2906 616 
Q 2728 306 2450 153 
Q 2172 0 1784 0 
Q 1141 0 747 490 
Q 353 981 353 1791 
Q 353 2603 747 3093 
Q 1141 3584 1784 3584 
Q 2172 3584 2450 3431 
Q 2728 3278 2906 2969 
L 2906 3500 
L 3481 3500 
L 3481 434 
z
" transform="scale(0.015625)"/>
       <path id="DejaVuSans-20" transform="scale(0.015625)"/>
      </defs>
      <use xlink:href="#DejaVuSans-41"/>
      <use xlink:href="#DejaVuSans-76" x="62.533203"/>
      <use xlink:href="#DejaVuSans-65" x="121.712891"/>
      <use xlink:href="#DejaVuSans-72" x="183.236328"/>
      <use xlink:href="#DejaVuSans-61" x="224.349609"/>
      <use xlink:href="#DejaVuSans-67" x="285.628906"/>
      <use xlink:href="#DejaVuSans-65" x="349.105469"/>
      <use xlink:href="#DejaVuSans-20" x="410.628906"/>
      <use xlink:href="#DejaVuSans-61" x="442.416016"/>
      <use xlink:href="#DejaVuSans-67" x="503.695312"/>
      <use xlink:href="#DejaVuSans-65" x="567.171875"/>
     </g>
    </g>
   </g>
   <g id="LineCollection_1">
    <path d="M 115.793434 146.011575 
L 115.793434 62.280349 
" clip-path="url(#p28d43f200f)" style="fill: none; stroke: #000000; stroke-width: 1.5"/>
    <path d="M 134.876881 154.503146 
L 134.876881 59.266185 
" clip-path="url(#p28d43f200f)" style="fill: none; stroke: #000000; stroke-width: 1.5"/>
    <path d="M 153.960328 153.328487 
L 153.960328 63.187802 
" clip-path="url(#p28d43f200f)" style="fill: none; stroke: #000000; stroke-width: 1.5"/>
    <path d="M 173.043776 146.793864 
L 173.043776 60.750929 
" clip-path="url(#p28d43f200f)" style="fill: none; stroke: #000000; stroke-width: 1.5"/>
    <path d="M 192.127223 139.240023 
L 192.127223 54.61465 
" clip-path="url(#p28d43f200f)" style="fill: none; stroke: #000000; stroke-width: 1.5"/>
    <path d="M 211.21067 147.684549 
L 211.21067 55.616997 
" clip-path="url(#p28d43f200f)" style="fill: none; stroke: #000000; stroke-width: 1.5"/>
    <path d="M 230.294118 151.867862 
L 230.294118 56.188272 
" clip-path="url(#p28d43f200f)" style="fill: none; stroke: #000000; stroke-width: 1.5"/>
    <path d="M 249.377565 151.384909 
L 249.377565 57.454107 
" clip-path="url(#p28d43f200f)" style="fill: none; stroke: #000000; stroke-width: 1.5"/>
    <path d="M 268.461012 151.942068 
L 268.461012 54.839841 
" clip-path="url(#p28d43f200f)" style="fill: none; stroke: #000000; stroke-width: 1.5"/>
   </g>
   <g id="LineCollection_2">
    <path d="M 110.068399 190.104837 
L 110.068399 103.666045 
" clip-path="url(#p28d43f200f)" style="fill: none; stroke: #000000; stroke-width: 1.5"/>
    <path d="M 129.151847 197.218731 
L 129.151847 115.012524 
" clip-path="url(#p28d43f200f)" style="fill: none; stroke: #000000; stroke-width: 1.5"/>
    <path d="M 148.235294 184.713854 
L 148.235294 100.875743 
" clip-path="url(#p28d43f200f)" style="fill: none; stroke: #000000; stroke-width: 1.5"/>
    <path d="M 167.318741 180.947233 
L 167.318741 100.542379 
" clip-path="url(#p28d43f200f)" style="fill: none; stroke: #000000; stroke-width: 1.5"/>
    <path d="M 186.402189 182.234703 
L 186.402189 103.624344 
" clip-path="url(#p28d43f200f)" style="fill: none; stroke: #000000; stroke-width: 1.5"/>
    <path d="M 205.485636 177.196388 
L 205.485636 90.666302 
" clip-path="url(#p28d43f200f)" style="fill: none; stroke: #000000; stroke-width: 1.5"/>
    <path d="M 224.569083 183.874837 
L 224.569083 96.394428 
" clip-path="url(#p28d43f200f)" style="fill: none; stroke: #000000; stroke-width: 1.5"/>
    <path d="M 243.652531 181.719524 
L 243.652531 95.262215 
" clip-path="url(#p28d43f200f)" style="fill: none; stroke: #000000; stroke-width: 1.5"/>
    <path d="M 262.735978 181.519759 
L 262.735978 94.388619 
" clip-path="url(#p28d43f200f)" style="fill: none; stroke: #000000; stroke-width: 1.5"/>
   </g>
   <g id="patch_21">
    <path d="M 99 256.32 
L 99 34.56 
" style="fill: none; stroke: #000000; stroke-width: 0.8; stroke-linejoin: miter; stroke-linecap: square"/>
   </g>
   <g id="patch_22">
    <path d="M 279.529412 256.32 
L 279.529412 34.56 
" style="fill: none; stroke: #000000; stroke-width: 0.8; stroke-linejoin: miter; stroke-linecap: square"/>
   </g>
   <g id="patch_23">
    <path d="M 99 256.32 
L 279.529412 256.32 
" style="fill: none; stroke: #000000; stroke-width: 0.8; stroke-linejoin: miter; stroke-linecap: square"/>
   </g>
   <g id="patch_24">
    <path d="M 99 34.56 
L 279.529412 34.56 
" style="fill: none; stroke: #000000; stroke-width: 0.8; stroke-linejoin: miter; stroke-linecap: square"/>
   </g>
   <g id="text_14">
    <!-- Action movies -->
    <g transform="translate(147.015331 28.56)scale(0.12 -0.12)">
     <defs>
      <path id="DejaVuSans-63" d="M 3122 3366 
L 3122 2828 
Q 2878 2963 2633 3030 
Q 2388 3097 2138 3097 
Q 1578 3097 1268 2742 
Q 959 2388 959 1747 
Q 959 1106 1268 751 
Q 1578 397 2138 397 
Q 2388 397 2633 464 
Q 2878 531 3122 666 
L 3122 134 
Q 2881 22 2623 -34 
Q 2366 -91 2075 -91 
Q 1284 -91 818 406 
Q 353 903 353 1747 
Q 353 2603 823 3093 
Q 1294 3584 2113 3584 
Q 2378 3584 2631 3529 
Q 2884 3475 3122 3366 
z
" transform="scale(0.015625)"/>
      <path id="DejaVuSans-74" d="M 1172 4494 
L 1172 3500 
L 2356 3500 
L 2356 3053 
L 1172 3053 
L 1172 1153 
Q 1172 725 1289 603 
Q 1406 481 1766 481 
L 2356 481 
L 2356 0 
L 1766 0 
Q 1100 0 847 248 
Q 594 497 594 1153 
L 594 3053 
L 172 3053 
L 172 3500 
L 594 3500 
L 594 4494 
L 1172 4494 
z
" transform="scale(0.015625)"/>
      <path id="DejaVuSans-69" d="M 603 3500 
L 1178 3500 
L 1178 0 
L 603 0 
L 603 3500 
z
M 603 4863 
L 1178 4863 
L 1178 4134 
L 603 4134 
L 603 4863 
z
" transform="scale(0.015625)"/>
      <path id="DejaVuSans-6f" d="M 1959 3097 
Q 1497 3097 1228 2736 
Q 959 2375 959 1747 
Q 959 1119 1226 758 
Q 1494 397 1959 397 
Q 2419 397 2687 759 
Q 2956 1122 2956 1747 
Q 2956 2369 2687 2733 
Q 2419 3097 1959 3097 
z
M 1959 3584 
Q 2709 3584 3137 3096 
Q 3566 2609 3566 1747 
Q 3566 888 3137 398 
Q 2709 -91 1959 -91 
Q 1206 -91 779 398 
Q 353 888 353 1747 
Q 353 2609 779 3096 
Q 1206 3584 1959 3584 
z
" transform="scale(0.015625)"/>
      <path id="DejaVuSans-6e" d="M 3513 2113 
L 3513 0 
L 2938 0 
L 2938 2094 
Q 2938 2591 2744 2837 
Q 2550 3084 2163 3084 
Q 1697 3084 1428 2787 
Q 1159 2491 1159 1978 
L 1159 0 
L 581 0 
L 581 3500 
L 1159 3500 
L 1159 2956 
Q 1366 3272 1645 3428 
Q 1925 3584 2291 3584 
Q 2894 3584 3203 3211 
Q 3513 2838 3513 2113 
z
" transform="scale(0.015625)"/>
      <path id="DejaVuSans-6d" d="M 3328 2828 
Q 3544 3216 3844 3400 
Q 4144 3584 4550 3584 
Q 5097 3584 5394 3201 
Q 5691 2819 5691 2113 
L 5691 0 
L 5113 0 
L 5113 2094 
Q 5113 2597 4934 2840 
Q 4756 3084 4391 3084 
Q 3944 3084 3684 2787 
Q 3425 2491 3425 1978 
L 3425 0 
L 2847 0 
L 2847 2094 
Q 2847 2600 2669 2842 
Q 2491 3084 2119 3084 
Q 1678 3084 1418 2786 
Q 1159 2488 1159 1978 
L 1159 0 
L 581 0 
L 581 3500 
L 1159 3500 
L 1159 2956 
Q 1356 3278 1631 3431 
Q 1906 3584 2284 3584 
Q 2666 3584 2933 3390 
Q 3200 3197 3328 2828 
z
" transform="scale(0.015625)"/>
      <path id="DejaVuSans-73" d="M 2834 3397 
L 2834 2853 
Q 2591 2978 2328 3040 
Q 2066 3103 1784 3103 
Q 1356 3103 1142 2972 
Q 928 2841 928 2578 
Q 928 2378 1081 2264 
Q 1234 2150 1697 2047 
L 1894 2003 
Q 2506 1872 2764 1633 
Q 3022 1394 3022 966 
Q 3022 478 2636 193 
Q 2250 -91 1575 -91 
Q 1294 -91 989 -36 
Q 684 19 347 128 
L 347 722 
Q 666 556 975 473 
Q 1284 391 1588 391 
Q 1994 391 2212 530 
Q 2431 669 2431 922 
Q 2431 1156 2273 1281 
Q 2116 1406 1581 1522 
L 1381 1569 
Q 847 1681 609 1914 
Q 372 2147 372 2553 
Q 372 3047 722 3315 
Q 1072 3584 1716 3584 
Q 2034 3584 2315 3537 
Q 2597 3491 2834 3397 
z
" transform="scale(0.015625)"/>
     </defs>
     <use xlink:href="#DejaVuSans-41"/>
     <use xlink:href="#DejaVuSans-63" x="66.658203"/>
     <use xlink:href="#DejaVuSans-74" x="121.638672"/>
     <use xlink:href="#DejaVuSans-69" x="160.847656"/>
     <use xlink:href="#DejaVuSans-6f" x="188.630859"/>
     <use xlink:href="#DejaVuSans-6e" x="249.8125"/>
     <use xlink:href="#DejaVuSans-20" x="313.191406"/>
     <use xlink:href="#DejaVuSans-6d" x="344.978516"/>
     <use xlink:href="#DejaVuSans-6f" x="442.390625"/>
     <use xlink:href="#DejaVuSans-76" x="503.572266"/>
     <use xlink:href="#DejaVuSans-69" x="562.751953"/>
     <use xlink:href="#DejaVuSans-65" x="590.535156"/>
     <use xlink:href="#DejaVuSans-73" x="652.058594"/>
    </g>
   </g>
   <g id="legend_1">
    <g id="patch_25">
     <path d="M 106 71.91625 
L 175.65 71.91625 
Q 177.65 71.91625 177.65 69.91625 
L 177.65 41.56 
Q 177.65 39.56 175.65 39.56 
L 106 39.56 
Q 104 39.56 104 41.56 
L 104 69.91625 
Q 104 71.91625 106 71.91625 
z
" style="fill: #ffffff; opacity: 0.8; stroke: #cccccc; stroke-linejoin: miter"/>
    </g>
    <g id="patch_26">
     <path d="M 108 51.158437 
L 128 51.158437 
L 128 44.158437 
L 108 44.158437 
z
" style="fill: #0000ff"/>
    </g>
    <g id="text_15">
     <!-- Men -->
     <g transform="translate(136 51.158437)scale(0.1 -0.1)">
      <defs>
       <path id="DejaVuSans-4d" d="M 628 4666 
L 1569 4666 
L 2759 1491 
L 3956 4666 
L 4897 4666 
L 4897 0 
L 4281 0 
L 4281 4097 
L 3078 897 
L 2444 897 
L 1241 4097 
L 1241 0 
L 628 0 
L 628 4666 
z
" transform="scale(0.015625)"/>
      </defs>
      <use xlink:href="#DejaVuSans-4d"/>
      <use xlink:href="#DejaVuSans-65" x="86.279297"/>
      <use xlink:href="#DejaVuSans-6e" x="147.802734"/>
     </g>
    </g>
    <g id="patch_27">
     <path d="M 108 65.836562 
L 128 65.836562 
L 128 58.836562 
L 108 58.836562 
z
" style="fill: #ff0000"/>
    </g>
    <g id="text_16">
     <!-- Women -->
     <g transform="translate(136 65.836562)scale(0.1 -0.1)">
      <defs>
       <path id="DejaVuSans-57" d="M 213 4666 
L 850 4666 
L 1831 722 
L 2809 4666 
L 3519 4666 
L 4500 722 
L 5478 4666 
L 6119 4666 
L 4947 0 
L 4153 0 
L 3169 4050 
L 2175 0 
L 1381 0 
L 213 4666 
z
" transform="scale(0.015625)"/>
      </defs>
      <use xlink:href="#DejaVuSans-57"/>
      <use xlink:href="#DejaVuSans-6f" x="93.001953"/>
      <use xlink:href="#DejaVuSans-6d" x="154.183594"/>
      <use xlink:href="#DejaVuSans-65" x="251.595703"/>
      <use xlink:href="#DejaVuSans-6e" x="313.119141"/>
     </g>
    </g>
   </g>
  </g>
  <g id="axes_2">
   <g id="patch_28">
    <path d="M 315.635294 256.32 
L 496.164706 256.32 
L 496.164706 34.56 
L 315.635294 34.56 
z
" style="fill: #ffffff"/>
   </g>
   <g id="patch_29">
    <path d="M 329.566211 256.32 
L 335.291245 256.32 
L 335.291245 105.756965 
L 329.566211 105.756965 
z
" clip-path="url(#p6a11fccd0c)" style="fill: #0000ff"/>
   </g>
   <g id="patch_30">
    <path d="M 348.649658 256.32 
L 354.374692 256.32 
L 354.374692 92.859311 
L 348.649658 92.859311 
z
" clip-path="url(#p6a11fccd0c)" style="fill: #0000ff"/>
   </g>
   <g id="patch_31">
    <path d="M 367.733105 256.32 
L 373.45814 256.32 
L 373.45814 90.016613 
L 367.733105 90.016613 
z
" clip-path="url(#p6a11fccd0c)" style="fill: #0000ff"/>
   </g>
   <g id="patch_32">
    <path d="M 386.816553 256.32 
L 392.541587 256.32 
L 392.541587 102.024731 
L 386.816553 102.024731 
z
" clip-path="url(#p6a11fccd0c)" style="fill: #0000ff"/>
   </g>
   <g id="patch_33">
    <path d="M 405.9 256.32 
L 411.625034 256.32 
L 411.625034 100.083796 
L 405.9 100.083796 
z
" clip-path="url(#p6a11fccd0c)" style="fill: #0000ff"/>
   </g>
   <g id="patch_34">
    <path d="M 424.983447 256.32 
L 430.708482 256.32 
L 430.708482 95.51047 
L 424.983447 95.51047 
z
" clip-path="url(#p6a11fccd0c)" style="fill: #0000ff"/>
   </g>
   <g id="patch_35">
    <path d="M 444.066895 256.32 
L 449.791929 256.32 
L 449.791929 105.909526 
L 444.066895 105.909526 
z
" clip-path="url(#p6a11fccd0c)" style="fill: #0000ff"/>
   </g>
   <g id="patch_36">
    <path d="M 463.150342 256.32 
L 468.875376 256.32 
L 468.875376 107.837195 
L 463.150342 107.837195 
z
" clip-path="url(#p6a11fccd0c)" style="fill: #0000ff"/>
   </g>
   <g id="patch_37">
    <path d="M 482.233789 256.32 
L 487.958824 256.32 
L 487.958824 112.702145 
L 482.233789 112.702145 
z
" clip-path="url(#p6a11fccd0c)" style="fill: #0000ff"/>
   </g>
   <g id="patch_38">
    <path d="M 323.841176 256.32 
L 329.566211 256.32 
L 329.566211 136.734272 
L 323.841176 136.734272 
z
" clip-path="url(#p6a11fccd0c)" style="fill: #ff0000"/>
   </g>
   <g id="patch_39">
    <path d="M 342.924624 256.32 
L 348.649658 256.32 
L 348.649658 148.028757 
L 342.924624 148.028757 
z
" clip-path="url(#p6a11fccd0c)" style="fill: #ff0000"/>
   </g>
   <g id="patch_40">
    <path d="M 362.008071 256.32 
L 367.733105 256.32 
L 367.733105 140.448114 
L 362.008071 140.448114 
z
" clip-path="url(#p6a11fccd0c)" style="fill: #ff0000"/>
   </g>
   <g id="patch_41">
    <path d="M 381.091518 256.32 
L 386.816553 256.32 
L 386.816553 143.076277 
L 381.091518 143.076277 
z
" clip-path="url(#p6a11fccd0c)" style="fill: #ff0000"/>
   </g>
   <g id="patch_42">
    <path d="M 400.174966 256.32 
L 405.9 256.32 
L 405.9 130.104584 
L 400.174966 130.104584 
z
" clip-path="url(#p6a11fccd0c)" style="fill: #ff0000"/>
   </g>
   <g id="patch_43">
    <path d="M 419.258413 256.32 
L 424.983447 256.32 
L 424.983447 134.241856 
L 419.258413 134.241856 
z
" clip-path="url(#p6a11fccd0c)" style="fill: #ff0000"/>
   </g>
   <g id="patch_44">
    <path d="M 438.34186 256.32 
L 444.066895 256.32 
L 444.066895 134.880859 
L 438.34186 134.880859 
z
" clip-path="url(#p6a11fccd0c)" style="fill: #ff0000"/>
   </g>
   <g id="patch_45">
    <path d="M 457.425308 256.32 
L 463.150342 256.32 
L 463.150342 130.690223 
L 457.425308 130.690223 
z
" clip-path="url(#p6a11fccd0c)" style="fill: #ff0000"/>
   </g>
   <g id="patch_46">
    <path d="M 476.508755 256.32 
L 482.233789 256.32 
L 482.233789 142.656413 
L 476.508755 142.656413 
z
" clip-path="url(#p6a11fccd0c)" style="fill: #ff0000"/>
   </g>
   <g id="matplotlib.axis_3">
    <g id="xtick_6">
     <g id="line2d_13">
      <g>
       <use xlink:href="#m93854ceb33" x="329.566211" y="256.32" style="stroke: #000000; stroke-width: 0.8"/>
      </g>
     </g>
     <g id="text_17">
      <!-- 1920 -->
      <g transform="translate(316.841211 270.918437)scale(0.1 -0.1)">
       <use xlink:href="#DejaVuSans-31"/>
       <use xlink:href="#DejaVuSans-39" x="63.623047"/>
       <use xlink:href="#DejaVuSans-32" x="127.246094"/>
       <use xlink:href="#DejaVuSans-30" x="190.869141"/>
      </g>
     </g>
    </g>
    <g id="xtick_7">
     <g id="line2d_14">
      <g>
       <use xlink:href="#m93854ceb33" x="367.733105" y="256.32" style="stroke: #000000; stroke-width: 0.8"/>
      </g>
     </g>
     <g id="text_18">
      <!-- 1940 -->
      <g transform="translate(355.008105 270.918437)scale(0.1 -0.1)">
       <use xlink:href="#DejaVuSans-31"/>
       <use xlink:href="#DejaVuSans-39" x="63.623047"/>
       <use xlink:href="#DejaVuSans-34" x="127.246094"/>
       <use xlink:href="#DejaVuSans-30" x="190.869141"/>
      </g>
     </g>
    </g>
    <g id="xtick_8">
     <g id="line2d_15">
      <g>
       <use xlink:href="#m93854ceb33" x="405.9" y="256.32" style="stroke: #000000; stroke-width: 0.8"/>
      </g>
     </g>
     <g id="text_19">
      <!-- 1960 -->
      <g transform="translate(393.175 270.918437)scale(0.1 -0.1)">
       <use xlink:href="#DejaVuSans-31"/>
       <use xlink:href="#DejaVuSans-39" x="63.623047"/>
       <use xlink:href="#DejaVuSans-36" x="127.246094"/>
       <use xlink:href="#DejaVuSans-30" x="190.869141"/>
      </g>
     </g>
    </g>
    <g id="xtick_9">
     <g id="line2d_16">
      <g>
       <use xlink:href="#m93854ceb33" x="444.066895" y="256.32" style="stroke: #000000; stroke-width: 0.8"/>
      </g>
     </g>
     <g id="text_20">
      <!-- 1980 -->
      <g transform="translate(431.341895 270.918437)scale(0.1 -0.1)">
       <use xlink:href="#DejaVuSans-31"/>
       <use xlink:href="#DejaVuSans-39" x="63.623047"/>
       <use xlink:href="#DejaVuSans-38" x="127.246094"/>
       <use xlink:href="#DejaVuSans-30" x="190.869141"/>
      </g>
     </g>
    </g>
    <g id="xtick_10">
     <g id="line2d_17">
      <g>
       <use xlink:href="#m93854ceb33" x="482.233789" y="256.32" style="stroke: #000000; stroke-width: 0.8"/>
      </g>
     </g>
     <g id="text_21">
      <!-- 2000 -->
      <g transform="translate(469.508789 270.918437)scale(0.1 -0.1)">
       <use xlink:href="#DejaVuSans-32"/>
       <use xlink:href="#DejaVuSans-30" x="63.623047"/>
       <use xlink:href="#DejaVuSans-30" x="127.246094"/>
       <use xlink:href="#DejaVuSans-30" x="190.869141"/>
      </g>
     </g>
    </g>
   </g>
   <g id="matplotlib.axis_4">
    <g id="ytick_8">
     <g id="line2d_18">
      <g>
       <use xlink:href="#m606d6e555c" x="315.635294" y="256.32" style="stroke: #000000; stroke-width: 0.8"/>
      </g>
     </g>
    </g>
    <g id="ytick_9">
     <g id="line2d_19">
      <g>
       <use xlink:href="#m606d6e555c" x="315.635294" y="219.491062" style="stroke: #000000; stroke-width: 0.8"/>
      </g>
     </g>
    </g>
    <g id="ytick_10">
     <g id="line2d_20">
      <g>
       <use xlink:href="#m606d6e555c" x="315.635294" y="182.662124" style="stroke: #000000; stroke-width: 0.8"/>
      </g>
     </g>
    </g>
    <g id="ytick_11">
     <g id="line2d_21">
      <g>
       <use xlink:href="#m606d6e555c" x="315.635294" y="145.833186" style="stroke: #000000; stroke-width: 0.8"/>
      </g>
     </g>
    </g>
    <g id="ytick_12">
     <g id="line2d_22">
      <g>
       <use xlink:href="#m606d6e555c" x="315.635294" y="109.004248" style="stroke: #000000; stroke-width: 0.8"/>
      </g>
     </g>
    </g>
    <g id="ytick_13">
     <g id="line2d_23">
      <g>
       <use xlink:href="#m606d6e555c" x="315.635294" y="72.17531" style="stroke: #000000; stroke-width: 0.8"/>
      </g>
     </g>
    </g>
    <g id="ytick_14">
     <g id="line2d_24">
      <g>
       <use xlink:href="#m606d6e555c" x="315.635294" y="35.346372" style="stroke: #000000; stroke-width: 0.8"/>
      </g>
     </g>
    </g>
   </g>
   <g id="LineCollection_3">
    <path d="M 332.428728 149.153357 
L 332.428728 62.360573 
" clip-path="url(#p6a11fccd0c)" style="fill: none; stroke: #000000; stroke-width: 1.5"/>
    <path d="M 351.512175 139.099413 
L 351.512175 46.619209 
" clip-path="url(#p6a11fccd0c)" style="fill: none; stroke: #000000; stroke-width: 1.5"/>
    <path d="M 370.595622 134.913226 
L 370.595622 45.12 
" clip-path="url(#p6a11fccd0c)" style="fill: none; stroke: #000000; stroke-width: 1.5"/>
    <path d="M 389.67907 149.160099 
L 389.67907 54.889363 
" clip-path="url(#p6a11fccd0c)" style="fill: none; stroke: #000000; stroke-width: 1.5"/>
    <path d="M 408.762517 146.674815 
L 408.762517 53.492777 
" clip-path="url(#p6a11fccd0c)" style="fill: none; stroke: #000000; stroke-width: 1.5"/>
    <path d="M 427.845964 145.738196 
L 427.845964 45.282745 
" clip-path="url(#p6a11fccd0c)" style="fill: none; stroke: #000000; stroke-width: 1.5"/>
    <path d="M 446.929412 162.838609 
L 446.929412 48.980443 
" clip-path="url(#p6a11fccd0c)" style="fill: none; stroke: #000000; stroke-width: 1.5"/>
    <path d="M 466.012859 161.546045 
L 466.012859 54.128345 
" clip-path="url(#p6a11fccd0c)" style="fill: none; stroke: #000000; stroke-width: 1.5"/>
    <path d="M 485.096306 167.637104 
L 485.096306 57.767186 
" clip-path="url(#p6a11fccd0c)" style="fill: none; stroke: #000000; stroke-width: 1.5"/>
   </g>
   <g id="LineCollection_4">
    <path d="M 326.703694 188.906844 
L 326.703694 84.5617 
" clip-path="url(#p6a11fccd0c)" style="fill: none; stroke: #000000; stroke-width: 1.5"/>
    <path d="M 345.787141 197.077562 
L 345.787141 98.979952 
" clip-path="url(#p6a11fccd0c)" style="fill: none; stroke: #000000; stroke-width: 1.5"/>
    <path d="M 364.870588 187.636021 
L 364.870588 93.260207 
" clip-path="url(#p6a11fccd0c)" style="fill: none; stroke: #000000; stroke-width: 1.5"/>
    <path d="M 383.954036 187.079154 
L 383.954036 99.073399 
" clip-path="url(#p6a11fccd0c)" style="fill: none; stroke: #000000; stroke-width: 1.5"/>
    <path d="M 403.037483 181.999029 
L 403.037483 78.210139 
" clip-path="url(#p6a11fccd0c)" style="fill: none; stroke: #000000; stroke-width: 1.5"/>
    <path d="M 422.12093 184.979255 
L 422.12093 83.504456 
" clip-path="url(#p6a11fccd0c)" style="fill: none; stroke: #000000; stroke-width: 1.5"/>
    <path d="M 441.204378 187.55562 
L 441.204378 82.206098 
" clip-path="url(#p6a11fccd0c)" style="fill: none; stroke: #000000; stroke-width: 1.5"/>
    <path d="M 460.287825 181.559628 
L 460.287825 79.820819 
" clip-path="url(#p6a11fccd0c)" style="fill: none; stroke: #000000; stroke-width: 1.5"/>
    <path d="M 479.371272 189.029765 
L 479.371272 96.28306 
" clip-path="url(#p6a11fccd0c)" style="fill: none; stroke: #000000; stroke-width: 1.5"/>
   </g>
   <g id="patch_47">
    <path d="M 315.635294 256.32 
L 315.635294 34.56 
" style="fill: none; stroke: #000000; stroke-width: 0.8; stroke-linejoin: miter; stroke-linecap: square"/>
   </g>
   <g id="patch_48">
    <path d="M 496.164706 256.32 
L 496.164706 34.56 
" style="fill: none; stroke: #000000; stroke-width: 0.8; stroke-linejoin: miter; stroke-linecap: square"/>
   </g>
   <g id="patch_49">
    <path d="M 315.635294 256.32 
L 496.164706 256.32 
" style="fill: none; stroke: #000000; stroke-width: 0.8; stroke-linejoin: miter; stroke-linecap: square"/>
   </g>
   <g id="patch_50">
    <path d="M 315.635294 34.56 
L 496.164706 34.56 
" style="fill: none; stroke: #000000; stroke-width: 0.8; stroke-linejoin: miter; stroke-linecap: square"/>
   </g>
   <g id="text_22">
    <!-- Horror movies -->
    <g transform="translate(363.4275 28.56)scale(0.12 -0.12)">
     <defs>
      <path id="DejaVuSans-48" d="M 628 4666 
L 1259 4666 
L 1259 2753 
L 3553 2753 
L 3553 4666 
L 4184 4666 
L 4184 0 
L 3553 0 
L 3553 2222 
L 1259 2222 
L 1259 0 
L 628 0 
L 628 4666 
z
" transform="scale(0.015625)"/>
     </defs>
     <use xlink:href="#DejaVuSans-48"/>
     <use xlink:href="#DejaVuSans-6f" x="75.195312"/>
     <use xlink:href="#DejaVuSans-72" x="136.376953"/>
     <use xlink:href="#DejaVuSans-72" x="175.740234"/>
     <use xlink:href="#DejaVuSans-6f" x="214.603516"/>
     <use xlink:href="#DejaVuSans-72" x="275.785156"/>
     <use xlink:href="#DejaVuSans-20" x="316.898438"/>
     <use xlink:href="#DejaVuSans-6d" x="348.685547"/>
     <use xlink:href="#DejaVuSans-6f" x="446.097656"/>
     <use xlink:href="#DejaVuSans-76" x="507.279297"/>
     <use xlink:href="#DejaVuSans-69" x="566.458984"/>
     <use xlink:href="#DejaVuSans-65" x="594.242188"/>
     <use xlink:href="#DejaVuSans-73" x="655.765625"/>
    </g>
   </g>
  </g>
  <g id="axes_3">
   <g id="patch_51">
    <path d="M 532.270588 256.32 
L 712.8 256.32 
L 712.8 34.56 
L 532.270588 34.56 
z
" style="fill: #ffffff"/>
   </g>
   <g id="patch_52">
    <path d="M 546.201505 256.32 
L 551.926539 256.32 
L 551.926539 112.871863 
L 546.201505 112.871863 
z
" clip-path="url(#pc4f7515e8e)" style="fill: #0000ff"/>
   </g>
   <g id="patch_53">
    <path d="M 565.284952 256.32 
L 571.009986 256.32 
L 571.009986 103.561105 
L 565.284952 103.561105 
z
" clip-path="url(#pc4f7515e8e)" style="fill: #0000ff"/>
   </g>
   <g id="patch_54">
    <path d="M 584.368399 256.32 
L 590.093434 256.32 
L 590.093434 97.266444 
L 584.368399 97.266444 
z
" clip-path="url(#pc4f7515e8e)" style="fill: #0000ff"/>
   </g>
   <g id="patch_55">
    <path d="M 603.451847 256.32 
L 609.176881 256.32 
L 609.176881 103.477478 
L 603.451847 103.477478 
z
" clip-path="url(#pc4f7515e8e)" style="fill: #0000ff"/>
   </g>
   <g id="patch_56">
    <path d="M 622.535294 256.32 
L 628.260328 256.32 
L 628.260328 102.653467 
L 622.535294 102.653467 
z
" clip-path="url(#pc4f7515e8e)" style="fill: #0000ff"/>
   </g>
   <g id="patch_57">
    <path d="M 641.618741 256.32 
L 647.343776 256.32 
L 647.343776 108.497742 
L 641.618741 108.497742 
z
" clip-path="url(#pc4f7515e8e)" style="fill: #0000ff"/>
   </g>
   <g id="patch_58">
    <path d="M 660.702189 256.32 
L 666.427223 256.32 
L 666.427223 108.438676 
L 660.702189 108.438676 
z
" clip-path="url(#pc4f7515e8e)" style="fill: #0000ff"/>
   </g>
   <g id="patch_59">
    <path d="M 679.785636 256.32 
L 685.51067 256.32 
L 685.51067 107.321809 
L 679.785636 107.321809 
z
" clip-path="url(#pc4f7515e8e)" style="fill: #0000ff"/>
   </g>
   <g id="patch_60">
    <path d="M 698.869083 256.32 
L 704.594118 256.32 
L 704.594118 109.856769 
L 698.869083 109.856769 
z
" clip-path="url(#pc4f7515e8e)" style="fill: #0000ff"/>
   </g>
   <g id="patch_61">
    <path d="M 540.476471 256.32 
L 546.201505 256.32 
L 546.201505 146.734727 
L 540.476471 146.734727 
z
" clip-path="url(#pc4f7515e8e)" style="fill: #ff0000"/>
   </g>
   <g id="patch_62">
    <path d="M 559.559918 256.32 
L 565.284952 256.32 
L 565.284952 137.849463 
L 559.559918 137.849463 
z
" clip-path="url(#pc4f7515e8e)" style="fill: #ff0000"/>
   </g>
   <g id="patch_63">
    <path d="M 578.643365 256.32 
L 584.368399 256.32 
L 584.368399 131.67169 
L 578.643365 131.67169 
z
" clip-path="url(#pc4f7515e8e)" style="fill: #ff0000"/>
   </g>
   <g id="patch_64">
    <path d="M 597.726813 256.32 
L 603.451847 256.32 
L 603.451847 129.018952 
L 597.726813 129.018952 
z
" clip-path="url(#pc4f7515e8e)" style="fill: #ff0000"/>
   </g>
   <g id="patch_65">
    <path d="M 616.81026 256.32 
L 622.535294 256.32 
L 622.535294 132.136977 
L 616.81026 132.136977 
z
" clip-path="url(#pc4f7515e8e)" style="fill: #ff0000"/>
   </g>
   <g id="patch_66">
    <path d="M 635.893707 256.32 
L 641.618741 256.32 
L 641.618741 133.75923 
L 635.893707 133.75923 
z
" clip-path="url(#pc4f7515e8e)" style="fill: #ff0000"/>
   </g>
   <g id="patch_67">
    <path d="M 654.977155 256.32 
L 660.702189 256.32 
L 660.702189 131.21373 
L 654.977155 131.21373 
z
" clip-path="url(#pc4f7515e8e)" style="fill: #ff0000"/>
   </g>
   <g id="patch_68">
    <path d="M 674.060602 256.32 
L 679.785636 256.32 
L 679.785636 129.289106 
L 674.060602 129.289106 
z
" clip-path="url(#pc4f7515e8e)" style="fill: #ff0000"/>
   </g>
   <g id="patch_69">
    <path d="M 693.144049 256.32 
L 698.869083 256.32 
L 698.869083 129.960231 
L 693.144049 129.960231 
z
" clip-path="url(#pc4f7515e8e)" style="fill: #ff0000"/>
   </g>
   <g id="matplotlib.axis_5">
    <g id="xtick_11">
     <g id="line2d_25">
      <g>
       <use xlink:href="#m93854ceb33" x="546.201505" y="256.32" style="stroke: #000000; stroke-width: 0.8"/>
      </g>
     </g>
     <g id="text_23">
      <!-- 1920 -->
      <g transform="translate(533.476505 270.918437)scale(0.1 -0.1)">
       <use xlink:href="#DejaVuSans-31"/>
       <use xlink:href="#DejaVuSans-39" x="63.623047"/>
       <use xlink:href="#DejaVuSans-32" x="127.246094"/>
       <use xlink:href="#DejaVuSans-30" x="190.869141"/>
      </g>
     </g>
    </g>
    <g id="xtick_12">
     <g id="line2d_26">
      <g>
       <use xlink:href="#m93854ceb33" x="584.368399" y="256.32" style="stroke: #000000; stroke-width: 0.8"/>
      </g>
     </g>
     <g id="text_24">
      <!-- 1940 -->
      <g transform="translate(571.643399 270.918437)scale(0.1 -0.1)">
       <use xlink:href="#DejaVuSans-31"/>
       <use xlink:href="#DejaVuSans-39" x="63.623047"/>
       <use xlink:href="#DejaVuSans-34" x="127.246094"/>
       <use xlink:href="#DejaVuSans-30" x="190.869141"/>
      </g>
     </g>
    </g>
    <g id="xtick_13">
     <g id="line2d_27">
      <g>
       <use xlink:href="#m93854ceb33" x="622.535294" y="256.32" style="stroke: #000000; stroke-width: 0.8"/>
      </g>
     </g>
     <g id="text_25">
      <!-- 1960 -->
      <g transform="translate(609.810294 270.918437)scale(0.1 -0.1)">
       <use xlink:href="#DejaVuSans-31"/>
       <use xlink:href="#DejaVuSans-39" x="63.623047"/>
       <use xlink:href="#DejaVuSans-36" x="127.246094"/>
       <use xlink:href="#DejaVuSans-30" x="190.869141"/>
      </g>
     </g>
    </g>
    <g id="xtick_14">
     <g id="line2d_28">
      <g>
       <use xlink:href="#m93854ceb33" x="660.702189" y="256.32" style="stroke: #000000; stroke-width: 0.8"/>
      </g>
     </g>
     <g id="text_26">
      <!-- 1980 -->
      <g transform="translate(647.977189 270.918437)scale(0.1 -0.1)">
       <use xlink:href="#DejaVuSans-31"/>
       <use xlink:href="#DejaVuSans-39" x="63.623047"/>
       <use xlink:href="#DejaVuSans-38" x="127.246094"/>
       <use xlink:href="#DejaVuSans-30" x="190.869141"/>
      </g>
     </g>
    </g>
    <g id="xtick_15">
     <g id="line2d_29">
      <g>
       <use xlink:href="#m93854ceb33" x="698.869083" y="256.32" style="stroke: #000000; stroke-width: 0.8"/>
      </g>
     </g>
     <g id="text_27">
      <!-- 2000 -->
      <g transform="translate(686.144083 270.918437)scale(0.1 -0.1)">
       <use xlink:href="#DejaVuSans-32"/>
       <use xlink:href="#DejaVuSans-30" x="63.623047"/>
       <use xlink:href="#DejaVuSans-30" x="127.246094"/>
       <use xlink:href="#DejaVuSans-30" x="190.869141"/>
      </g>
     </g>
    </g>
   </g>
   <g id="matplotlib.axis_6">
    <g id="ytick_15">
     <g id="line2d_30">
      <g>
       <use xlink:href="#m606d6e555c" x="532.270588" y="256.32" style="stroke: #000000; stroke-width: 0.8"/>
      </g>
     </g>
    </g>
    <g id="ytick_16">
     <g id="line2d_31">
      <g>
       <use xlink:href="#m606d6e555c" x="532.270588" y="219.491062" style="stroke: #000000; stroke-width: 0.8"/>
      </g>
     </g>
    </g>
    <g id="ytick_17">
     <g id="line2d_32">
      <g>
       <use xlink:href="#m606d6e555c" x="532.270588" y="182.662124" style="stroke: #000000; stroke-width: 0.8"/>
      </g>
     </g>
    </g>
    <g id="ytick_18">
     <g id="line2d_33">
      <g>
       <use xlink:href="#m606d6e555c" x="532.270588" y="145.833186" style="stroke: #000000; stroke-width: 0.8"/>
      </g>
     </g>
    </g>
    <g id="ytick_19">
     <g id="line2d_34">
      <g>
       <use xlink:href="#m606d6e555c" x="532.270588" y="109.004248" style="stroke: #000000; stroke-width: 0.8"/>
      </g>
     </g>
    </g>
    <g id="ytick_20">
     <g id="line2d_35">
      <g>
       <use xlink:href="#m606d6e555c" x="532.270588" y="72.17531" style="stroke: #000000; stroke-width: 0.8"/>
      </g>
     </g>
    </g>
    <g id="ytick_21">
     <g id="line2d_36">
      <g>
       <use xlink:href="#m606d6e555c" x="532.270588" y="35.346372" style="stroke: #000000; stroke-width: 0.8"/>
      </g>
     </g>
    </g>
   </g>
   <g id="LineCollection_5">
    <path d="M 549.064022 159.348661 
L 549.064022 66.395066 
" clip-path="url(#pc4f7515e8e)" style="fill: none; stroke: #000000; stroke-width: 1.5"/>
    <path d="M 568.147469 148.892762 
L 568.147469 58.229448 
" clip-path="url(#pc4f7515e8e)" style="fill: none; stroke: #000000; stroke-width: 1.5"/>
    <path d="M 587.230917 147.044921 
L 587.230917 47.487966 
" clip-path="url(#pc4f7515e8e)" style="fill: none; stroke: #000000; stroke-width: 1.5"/>
    <path d="M 606.314364 150.783023 
L 606.314364 56.171932 
" clip-path="url(#pc4f7515e8e)" style="fill: none; stroke: #000000; stroke-width: 1.5"/>
    <path d="M 625.397811 148.789102 
L 625.397811 56.517833 
" clip-path="url(#pc4f7515e8e)" style="fill: none; stroke: #000000; stroke-width: 1.5"/>
    <path d="M 644.481259 156.446977 
L 644.481259 60.548508 
" clip-path="url(#pc4f7515e8e)" style="fill: none; stroke: #000000; stroke-width: 1.5"/>
    <path d="M 663.564706 162.321899 
L 663.564706 54.555454 
" clip-path="url(#pc4f7515e8e)" style="fill: none; stroke: #000000; stroke-width: 1.5"/>
    <path d="M 682.648153 160.504996 
L 682.648153 54.138623 
" clip-path="url(#pc4f7515e8e)" style="fill: none; stroke: #000000; stroke-width: 1.5"/>
    <path d="M 701.731601 162.659584 
L 701.731601 57.053954 
" clip-path="url(#pc4f7515e8e)" style="fill: none; stroke: #000000; stroke-width: 1.5"/>
   </g>
   <g id="LineCollection_6">
    <path d="M 543.338988 189.423482 
L 543.338988 104.045973 
" clip-path="url(#pc4f7515e8e)" style="fill: none; stroke: #000000; stroke-width: 1.5"/>
    <path d="M 562.422435 184.819854 
L 562.422435 90.879072 
" clip-path="url(#pc4f7515e8e)" style="fill: none; stroke: #000000; stroke-width: 1.5"/>
    <path d="M 581.505882 183.860712 
L 581.505882 79.482668 
" clip-path="url(#pc4f7515e8e)" style="fill: none; stroke: #000000; stroke-width: 1.5"/>
    <path d="M 600.58933 178.683343 
L 600.58933 79.354561 
" clip-path="url(#pc4f7515e8e)" style="fill: none; stroke: #000000; stroke-width: 1.5"/>
    <path d="M 619.672777 183.600287 
L 619.672777 80.673666 
" clip-path="url(#pc4f7515e8e)" style="fill: none; stroke: #000000; stroke-width: 1.5"/>
    <path d="M 638.756224 183.835535 
L 638.756224 83.682925 
" clip-path="url(#pc4f7515e8e)" style="fill: none; stroke: #000000; stroke-width: 1.5"/>
    <path d="M 657.839672 184.349859 
L 657.839672 78.077602 
" clip-path="url(#pc4f7515e8e)" style="fill: none; stroke: #000000; stroke-width: 1.5"/>
    <path d="M 676.923119 182.766556 
L 676.923119 75.811656 
" clip-path="url(#pc4f7515e8e)" style="fill: none; stroke: #000000; stroke-width: 1.5"/>
    <path d="M 696.006566 182.743735 
L 696.006566 77.176727 
" clip-path="url(#pc4f7515e8e)" style="fill: none; stroke: #000000; stroke-width: 1.5"/>
   </g>
   <g id="patch_70">
    <path d="M 532.270588 256.32 
L 532.270588 34.56 
" style="fill: none; stroke: #000000; stroke-width: 0.8; stroke-linejoin: miter; stroke-linecap: square"/>
   </g>
   <g id="patch_71">
    <path d="M 712.8 256.32 
L 712.8 34.56 
" style="fill: none; stroke: #000000; stroke-width: 0.8; stroke-linejoin: miter; stroke-linecap: square"/>
   </g>
   <g id="patch_72">
    <path d="M 532.270588 256.32 
L 712.8 256.32 
" style="fill: none; stroke: #000000; stroke-width: 0.8; stroke-linejoin: miter; stroke-linecap: square"/>
   </g>
   <g id="patch_73">
    <path d="M 532.270588 34.56 
L 712.8 34.56 
" style="fill: none; stroke: #000000; stroke-width: 0.8; stroke-linejoin: miter; stroke-linecap: square"/>
   </g>
   <g id="text_28">
    <!-- Romance movies -->
    <g transform="translate(571.192169 28.56)scale(0.12 -0.12)">
     <defs>
      <path id="DejaVuSans-52" d="M 2841 2188 
Q 3044 2119 3236 1894 
Q 3428 1669 3622 1275 
L 4263 0 
L 3584 0 
L 2988 1197 
Q 2756 1666 2539 1819 
Q 2322 1972 1947 1972 
L 1259 1972 
L 1259 0 
L 628 0 
L 628 4666 
L 2053 4666 
Q 2853 4666 3247 4331 
Q 3641 3997 3641 3322 
Q 3641 2881 3436 2590 
Q 3231 2300 2841 2188 
z
M 1259 4147 
L 1259 2491 
L 2053 2491 
Q 2509 2491 2742 2702 
Q 2975 2913 2975 3322 
Q 2975 3731 2742 3939 
Q 2509 4147 2053 4147 
L 1259 4147 
z
" transform="scale(0.015625)"/>
     </defs>
     <use xlink:href="#DejaVuSans-52"/>
     <use xlink:href="#DejaVuSans-6f" x="64.982422"/>
     <use xlink:href="#DejaVuSans-6d" x="126.164062"/>
     <use xlink:href="#DejaVuSans-61" x="223.576172"/>
     <use xlink:href="#DejaVuSans-6e" x="284.855469"/>
     <use xlink:href="#DejaVuSans-63" x="348.234375"/>
     <use xlink:href="#DejaVuSans-65" x="403.214844"/>
     <use xlink:href="#DejaVuSans-20" x="464.738281"/>
     <use xlink:href="#DejaVuSans-6d" x="496.525391"/>
     <use xlink:href="#DejaVuSans-6f" x="593.9375"/>
     <use xlink:href="#DejaVuSans-76" x="655.119141"/>
     <use xlink:href="#DejaVuSans-69" x="714.298828"/>
     <use xlink:href="#DejaVuSans-65" x="742.082031"/>
     <use xlink:href="#DejaVuSans-73" x="803.605469"/>
    </g>
   </g>
  </g>
  <g id="text_29">
   <!-- Average age of female vs male actors separated by decade and genre -->
   <g transform="translate(184.337813 14.878125)scale(0.12 -0.12)">
    <defs>
     <path id="DejaVuSans-66" d="M 2375 4863 
L 2375 4384 
L 1825 4384 
Q 1516 4384 1395 4259 
Q 1275 4134 1275 3809 
L 1275 3500 
L 2222 3500 
L 2222 3053 
L 1275 3053 
L 1275 0 
L 697 0 
L 697 3053 
L 147 3053 
L 147 3500 
L 697 3500 
L 697 3744 
Q 697 4328 969 4595 
Q 1241 4863 1831 4863 
L 2375 4863 
z
" transform="scale(0.015625)"/>
     <path id="DejaVuSans-6c" d="M 603 4863 
L 1178 4863 
L 1178 0 
L 603 0 
L 603 4863 
z
" transform="scale(0.015625)"/>
     <path id="DejaVuSans-70" d="M 1159 525 
L 1159 -1331 
L 581 -1331 
L 581 3500 
L 1159 3500 
L 1159 2969 
Q 1341 3281 1617 3432 
Q 1894 3584 2278 3584 
Q 2916 3584 3314 3078 
Q 3713 2572 3713 1747 
Q 3713 922 3314 415 
Q 2916 -91 2278 -91 
Q 1894 -91 1617 61 
Q 1341 213 1159 525 
z
M 3116 1747 
Q 3116 2381 2855 2742 
Q 2594 3103 2138 3103 
Q 1681 3103 1420 2742 
Q 1159 2381 1159 1747 
Q 1159 1113 1420 752 
Q 1681 391 2138 391 
Q 2594 391 2855 752 
Q 3116 1113 3116 1747 
z
" transform="scale(0.015625)"/>
     <path id="DejaVuSans-64" d="M 2906 2969 
L 2906 4863 
L 3481 4863 
L 3481 0 
L 2906 0 
L 2906 525 
Q 2725 213 2448 61 
Q 2172 -91 1784 -91 
Q 1150 -91 751 415 
Q 353 922 353 1747 
Q 353 2572 751 3078 
Q 1150 3584 1784 3584 
Q 2172 3584 2448 3432 
Q 2725 3281 2906 2969 
z
M 947 1747 
Q 947 1113 1208 752 
Q 1469 391 1925 391 
Q 2381 391 2643 752 
Q 2906 1113 2906 1747 
Q 2906 2381 2643 2742 
Q 2381 3103 1925 3103 
Q 1469 3103 1208 2742 
Q 947 2381 947 1747 
z
" transform="scale(0.015625)"/>
     <path id="DejaVuSans-62" d="M 3116 1747 
Q 3116 2381 2855 2742 
Q 2594 3103 2138 3103 
Q 1681 3103 1420 2742 
Q 1159 2381 1159 1747 
Q 1159 1113 1420 752 
Q 1681 391 2138 391 
Q 2594 391 2855 752 
Q 3116 1113 3116 1747 
z
M 1159 2969 
Q 1341 3281 1617 3432 
Q 1894 3584 2278 3584 
Q 2916 3584 3314 3078 
Q 3713 2572 3713 1747 
Q 3713 922 3314 415 
Q 2916 -91 2278 -91 
Q 1894 -91 1617 61 
Q 1341 213 1159 525 
L 1159 0 
L 581 0 
L 581 4863 
L 1159 4863 
L 1159 2969 
z
" transform="scale(0.015625)"/>
     <path id="DejaVuSans-79" d="M 2059 -325 
Q 1816 -950 1584 -1140 
Q 1353 -1331 966 -1331 
L 506 -1331 
L 506 -850 
L 844 -850 
Q 1081 -850 1212 -737 
Q 1344 -625 1503 -206 
L 1606 56 
L 191 3500 
L 800 3500 
L 1894 763 
L 2988 3500 
L 3597 3500 
L 2059 -325 
z
" transform="scale(0.015625)"/>
    </defs>
    <use xlink:href="#DejaVuSans-41"/>
    <use xlink:href="#DejaVuSans-76" x="62.533203"/>
    <use xlink:href="#DejaVuSans-65" x="121.712891"/>
    <use xlink:href="#DejaVuSans-72" x="183.236328"/>
    <use xlink:href="#DejaVuSans-61" x="224.349609"/>
    <use xlink:href="#DejaVuSans-67" x="285.628906"/>
    <use xlink:href="#DejaVuSans-65" x="349.105469"/>
    <use xlink:href="#DejaVuSans-20" x="410.628906"/>
    <use xlink:href="#DejaVuSans-61" x="442.416016"/>
    <use xlink:href="#DejaVuSans-67" x="503.695312"/>
    <use xlink:href="#DejaVuSans-65" x="567.171875"/>
    <use xlink:href="#DejaVuSans-20" x="628.695312"/>
    <use xlink:href="#DejaVuSans-6f" x="660.482422"/>
    <use xlink:href="#DejaVuSans-66" x="721.664062"/>
    <use xlink:href="#DejaVuSans-20" x="756.869141"/>
    <use xlink:href="#DejaVuSans-66" x="788.65625"/>
    <use xlink:href="#DejaVuSans-65" x="823.861328"/>
    <use xlink:href="#DejaVuSans-6d" x="885.384766"/>
    <use xlink:href="#DejaVuSans-61" x="982.796875"/>
    <use xlink:href="#DejaVuSans-6c" x="1044.076172"/>
    <use xlink:href="#DejaVuSans-65" x="1071.859375"/>
    <use xlink:href="#DejaVuSans-20" x="1133.382812"/>
    <use xlink:href="#DejaVuSans-76" x="1165.169922"/>
    <use xlink:href="#DejaVuSans-73" x="1224.349609"/>
    <use xlink:href="#DejaVuSans-20" x="1276.449219"/>
    <use xlink:href="#DejaVuSans-6d" x="1308.236328"/>
    <use xlink:href="#DejaVuSans-61" x="1405.648438"/>
    <use xlink:href="#DejaVuSans-6c" x="1466.927734"/>
    <use xlink:href="#DejaVuSans-65" x="1494.710938"/>
    <use xlink:href="#DejaVuSans-20" x="1556.234375"/>
    <use xlink:href="#DejaVuSans-61" x="1588.021484"/>
    <use xlink:href="#DejaVuSans-63" x="1649.300781"/>
    <use xlink:href="#DejaVuSans-74" x="1704.28125"/>
    <use xlink:href="#DejaVuSans-6f" x="1743.490234"/>
    <use xlink:href="#DejaVuSans-72" x="1804.671875"/>
    <use xlink:href="#DejaVuSans-73" x="1845.785156"/>
    <use xlink:href="#DejaVuSans-20" x="1897.884766"/>
    <use xlink:href="#DejaVuSans-73" x="1929.671875"/>
    <use xlink:href="#DejaVuSans-65" x="1981.771484"/>
    <use xlink:href="#DejaVuSans-70" x="2043.294922"/>
    <use xlink:href="#DejaVuSans-61" x="2106.771484"/>
    <use xlink:href="#DejaVuSans-72" x="2168.050781"/>
    <use xlink:href="#DejaVuSans-61" x="2209.164062"/>
    <use xlink:href="#DejaVuSans-74" x="2270.443359"/>
    <use xlink:href="#DejaVuSans-65" x="2309.652344"/>
    <use xlink:href="#DejaVuSans-64" x="2371.175781"/>
    <use xlink:href="#DejaVuSans-20" x="2434.652344"/>
    <use xlink:href="#DejaVuSans-62" x="2466.439453"/>
    <use xlink:href="#DejaVuSans-79" x="2529.916016"/>
    <use xlink:href="#DejaVuSans-20" x="2589.095703"/>
    <use xlink:href="#DejaVuSans-64" x="2620.882812"/>
    <use xlink:href="#DejaVuSans-65" x="2684.359375"/>
    <use xlink:href="#DejaVuSans-63" x="2745.882812"/>
    <use xlink:href="#DejaVuSans-61" x="2800.863281"/>
    <use xlink:href="#DejaVuSans-64" x="2862.142578"/>
    <use xlink:href="#DejaVuSans-65" x="2925.619141"/>
    <use xlink:href="#DejaVuSans-20" x="2987.142578"/>
    <use xlink:href="#DejaVuSans-61" x="3018.929688"/>
    <use xlink:href="#DejaVuSans-6e" x="3080.208984"/>
    <use xlink:href="#DejaVuSans-64" x="3143.587891"/>
    <use xlink:href="#DejaVuSans-20" x="3207.064453"/>
    <use xlink:href="#DejaVuSans-67" x="3238.851562"/>
    <use xlink:href="#DejaVuSans-65" x="3302.328125"/>
    <use xlink:href="#DejaVuSans-6e" x="3363.851562"/>
    <use xlink:href="#DejaVuSans-72" x="3427.230469"/>
    <use xlink:href="#DejaVuSans-65" x="3466.09375"/>
   </g>
  </g>
 </g>
 <defs>
  <clipPath id="p28d43f200f">
   <rect x="99" y="34.56" width="180.529412" height="221.76"/>
  </clipPath>
  <clipPath id="p6a11fccd0c">
   <rect x="315.635294" y="34.56" width="180.529412" height="221.76"/>
  </clipPath>
  <clipPath id="pc4f7515e8e">
   <rect x="532.270588" y="34.56" width="180.529412" height="221.76"/>
  </clipPath>
 </defs>
</svg>
